<svg width="135" height="41" viewBox="0 0 135 41" fill="none" xmlns="http://www.w3.org/2000/svg">
<path d="M11.4742 17.9259H21.5451C21.4709 18.6984 21.4285 19.5132 21.4285 20.291C21.4218 22.2064 21.6533 24.1151 22.1175 25.9736H11.4742C10.9529 25.9787 10.4358 25.8798 9.9534 25.6826C9.47097 25.4854 9.03289 25.194 8.66489 24.8254C8.28593 24.4601 7.98672 24.0206 7.78605 23.5344C7.58537 23.0481 7.48757 22.5258 7.49879 22C7.48424 21.4651 7.57763 20.9328 7.77341 20.4347C7.96919 19.9366 8.26335 19.4828 8.63839 19.1005C9.00726 18.7166 9.45239 18.4138 9.94528 18.2116C10.4382 18.0093 10.9679 17.912 11.5007 17.9259H11.4742ZM16.9125 8.40213H24.8632C23.6286 10.3242 22.7172 12.435 22.1653 14.6508H16.886C16.479 14.6593 16.0745 14.5859 15.6966 14.435C15.3187 14.2841 14.9751 14.0588 14.6863 13.7725C14.3913 13.4901 14.1583 13.1495 14.0023 12.7724C13.8463 12.3953 13.7705 11.9899 13.7799 11.582C13.7687 11.1663 13.8413 10.7526 13.9934 10.3654C14.1454 9.97822 14.3738 9.62546 14.6651 9.32806C14.9509 9.02982 15.2963 8.79473 15.6788 8.63798C16.0614 8.48123 16.4726 8.40629 16.886 8.418L16.9125 8.40213ZM5.00755 29.2328H23.2572C24.4255 31.8541 26.0924 34.2242 28.1654 36.2117C28.5417 36.582 28.934 36.9365 29.3262 37.2699H5.00755C4.48083 37.2802 3.95748 37.1837 3.46915 36.9864C2.98083 36.789 2.53767 36.4949 2.16649 36.1217C1.78753 35.7564 1.48832 35.3169 1.28764 34.8306C1.08697 34.3444 0.989169 33.8221 1.00038 33.2963C0.986435 32.7615 1.08011 32.2293 1.27585 31.7313C1.4716 31.2333 1.76544 30.7795 2.13999 30.3968C2.51059 30.0144 2.95703 29.7134 3.45079 29.5129C3.94455 29.3125 4.47476 29.2171 5.00755 29.2328ZM38.7505 16.1958H54.44C54.4587 17.2581 54.2569 18.3129 53.8473 19.2936C53.4377 20.2743 52.8292 21.1597 52.06 21.8942C51.313 22.6508 50.4201 23.2485 49.4354 23.6514C48.4506 24.0542 47.3943 24.2538 46.3302 24.2381H38.7505C38.2251 24.2481 37.7031 24.152 37.2158 23.9556C36.7285 23.7592 36.2859 23.4666 35.9147 23.0952C35.5358 22.73 35.2366 22.2904 35.0359 21.8042C34.8352 21.318 34.7374 20.7956 34.7486 20.2699C34.7343 19.7342 34.8277 19.2011 35.0235 18.7022C35.2192 18.2032 35.5133 17.7486 35.8882 17.3651C36.2576 16.9821 36.7029 16.6803 37.1958 16.479C37.6886 16.2776 38.2182 16.1812 38.7505 16.1958Z" fill="#FF6600"/>
<path d="M100.808 0.608459C100.825 1.66795 100.625 2.71979 100.22 3.69899C99.8138 4.67819 99.2113 5.56396 98.4492 6.30158C97.7096 7.06112 96.822 7.66141 95.8411 8.06544C94.8602 8.46947 93.8068 8.66868 92.7459 8.65079H84.6361V40.4815C82.3822 40.4676 80.2245 39.5681 78.6302 37.9777C77.036 36.3872 76.1335 34.234 76.1182 31.9841V8.65079H70.5845V8.35978V7.91534V7.80423V7.4656V7.3492V7.25925V7.16401V7.04761V6.95237V6.88359V6.85184V6.7619V6.68253V6.59259V6.55026V6.4656V6.36507V6.32274V6.22222V6.12169V5.99999V5.96296V5.85185V5.73544L70.5527 5.61375L70.5156 5.48677L70.4785 5.35449L70.4414 5.2328L70.4043 5.1164L70.3672 4.99999L70.3301 4.89417V4.86772L70.2983 4.76719V4.73544L70.2612 4.6402V4.60317L70.2293 4.51322V4.47089L70.1975 4.39153L70.171 4.32274L70.1339 4.23809L70.1074 4.16401V4.13756L70.0756 4.07407L70.0491 4.00529V3.97883L70.0226 3.92063V3.89417L69.9855 3.8201L69.9484 3.74602L69.9113 3.67195V3.64021V3.59788L69.8 3.38095L69.747 3.291V3.26454L69.694 3.16402L69.6357 3.05819L69.5721 2.94708L69.5032 2.83597L69.4343 2.71957L69.3654 2.60846L69.2965 2.49735L69.2329 2.40211L69.164 2.30687L69.1109 2.2328L69.0844 2.19576V2.16931L69.0208 2.08465V2.0529L68.9625 1.97354L68.936 1.94179L68.8671 1.85714L68.8141 1.78835L68.7505 1.70899L68.7134 1.65608L68.0296 1.2328L67.9607 1.15343V1.12169L67.8971 1.04761V1.01587L67.8229 0.936501L67.7434 0.846554L67.6586 0.756607L67.5791 0.671951H100.93L100.808 0.608459Z" fill="#FF6600"/>
<path d="M126.24 32.7354V20.5979C126.277 18.9872 125.969 17.3872 125.337 15.9047C124.706 14.4221 123.765 13.0909 122.577 12C120.231 9.66819 117.055 8.35906 113.744 8.35906C110.433 8.35906 107.257 9.66819 104.911 12C103.728 13.0938 102.791 14.4259 102.162 15.9081C101.534 17.3902 101.227 18.9887 101.264 20.5979C101.226 22.1931 101.529 23.778 102.153 25.2469C102.778 26.7159 103.709 28.035 104.884 29.1164C106.032 30.2893 107.409 31.2143 108.93 31.8341C110.451 32.4539 112.083 32.7553 113.725 32.7196L126.24 32.7354ZM134 20.5979V40.4815H113.725C111.079 40.5171 108.452 40.0201 106.003 39.0201C103.553 38.0201 101.33 36.5377 99.467 34.6614C97.55 32.8585 96.0298 30.6771 95.0032 28.2559C93.9766 25.8347 93.466 23.2267 93.5039 20.5979C93.4658 17.9588 93.976 15.3405 95.0023 12.9082C96.0286 10.4758 97.5488 8.28214 99.467 6.4656C103.265 2.71365 108.393 0.6091 113.736 0.6091C119.079 0.6091 124.207 2.71365 128.005 6.4656C129.931 8.27737 131.459 10.4694 132.491 12.9024C133.523 15.3353 134.037 17.956 134 20.5979Z" fill="#FF6600"/>
<path d="M44.2041 40.4815C41.5222 40.5207 38.86 40.0188 36.3771 39.006C33.8942 37.9932 31.6418 36.4902 29.755 34.5873C27.8126 32.7534 26.2734 30.5365 25.235 28.0772C24.1966 25.6179 23.6817 22.97 23.723 20.3016C23.6821 17.623 24.1969 14.9649 25.235 12.4946C26.2731 10.0242 27.812 7.79498 29.755 5.94707C31.6359 4.03374 33.8864 2.5215 36.37 1.50198C38.8537 0.482455 41.5189 -0.0231297 44.2041 0.0158583H56.215C56.233 1.07733 56.0309 2.13104 55.6213 3.11078C55.2118 4.09052 54.6036 4.97512 53.8351 5.70898C53.09 6.46898 52.1978 7.06966 51.2128 7.47444C50.2277 7.87922 49.1704 8.07963 48.1053 8.06348H44.2041C42.6135 8.04019 41.0358 8.35242 39.5744 8.97971C38.1129 9.60701 36.8006 10.5352 35.7233 11.7037C34.5996 12.8355 33.7122 14.1788 33.1126 15.6556C32.5129 17.1325 32.2131 18.7134 32.2303 20.3069C32.2102 21.8936 32.509 23.4682 33.109 24.9377C33.7089 26.4072 34.5979 27.7417 35.7233 28.8624C36.8084 30.0178 38.1232 30.9341 39.5836 31.5528C41.044 32.1714 42.6178 32.4787 44.2041 32.455H48.1053C49.1699 32.4391 50.2267 32.6391 51.2116 33.0429C52.1965 33.4467 53.089 34.0459 53.8351 34.8042C54.6028 35.5387 55.2105 36.4234 55.62 37.403C56.0295 38.3826 56.2321 39.436 56.215 40.4973L44.2041 40.4815Z" fill="#FF6600"/>
<path d="M67.5002 8.48148C67.5143 7.36309 67.2986 6.25368 66.8665 5.22172C66.4344 4.18977 65.795 3.25716 64.9877 2.48148C64.2062 1.68294 63.2694 1.0523 62.2349 0.628304C61.2003 0.204305 60.0899 -0.00410688 58.9717 0.0158683V31.9841C58.9842 34.2366 59.8873 36.3931 61.4844 37.9844C63.0816 39.5757 65.2436 40.4731 67.5002 40.4815V8.48148Z" fill="#FF6600"/>
</svg>
