<svg width="25" height="24" viewBox="0 0 25 24" fill="none" xmlns="http://www.w3.org/2000/svg">
<rect width="24" height="24" transform="translate(0.199951)" fill="white"/>
<path d="M3.31104 9.33331L12.1999 3.11108L21.0888 9.33331V19.1111C21.0888 19.5826 20.8807 20.0348 20.5103 20.3682C20.1398 20.7016 19.6374 20.8889 19.1135 20.8889H5.28634C4.76246 20.8889 4.26003 20.7016 3.88959 20.3682C3.51915 20.0348 3.31104 19.5826 3.31104 19.1111V9.33331Z" fill="#4E49B9" fill-opacity="0.2"/>
<path fill-rule="evenodd" clip-rule="evenodd" d="M2.19995 9.36841C2.19995 8.98944 2.39174 8.6317 2.71965 8.39903L11.3735 2.25869C11.8596 1.91377 12.5403 1.91377 13.0264 2.25869L21.6803 8.39903C22.0082 8.6317 22.2 8.98944 22.2 9.36841V19.0175C22.2 19.8085 21.8555 20.5671 21.2424 21.1264C20.6293 21.6857 19.7978 22 18.9307 22H5.46918C4.60213 22 3.77059 21.6857 3.15749 21.1264C2.54439 20.5671 2.19995 19.8085 2.19995 19.0175V9.36841ZM12.2 3.22807L3.54611 9.36841V19.0175C3.54611 19.4828 3.74871 19.929 4.10936 20.2581C4.47001 20.5871 4.95915 20.7719 5.46918 20.7719H18.9307C19.4408 20.7719 19.9299 20.5871 20.2905 20.2581C20.6512 19.929 20.8538 19.4828 20.8538 19.0175V9.36841L12.2 3.22807Z" fill="#4E49B9"/>
<path d="M8.8667 21.9999V14.2222H15.5334V21.9999" fill="white"/>
<path fill-rule="evenodd" clip-rule="evenodd" d="M8.86673 13.6569C8.86673 13.3555 9.14908 13.1111 9.49737 13.1111H14.9028C15.2511 13.1111 15.5334 13.3555 15.5334 13.6569V21.6985C15.5334 22 16.089 22 14.9028 22C14.5545 22 14.2721 21.7556 14.2721 21.4542V14.2027H10.128V21.4444C10.128 21.7459 9.84565 22 9.49737 22C8.31125 22 8.0289 22 8.86673 21.4542V13.6569Z" fill="#4E49B9"/>
</svg>
