<svg width="29" height="29" viewBox="0 0 29 29" fill="none" xmlns="http://www.w3.org/2000/svg">
<path d="M19.0312 14.5C19.0312 15.7018 18.5539 16.8543 17.7041 17.7041C16.8543 18.5539 15.7018 19.0312 14.5 19.0312C13.2982 19.0312 12.1457 18.5539 11.2959 17.7041C10.4461 16.8543 9.96875 15.7018 9.96875 14.5C9.96875 14.2417 9.99594 13.9895 10.0428 13.7448H8.45833V19.7819C8.45833 20.2018 8.79818 20.5417 9.21807 20.5417H19.7834C19.9847 20.5413 20.1775 20.461 20.3197 20.3186C20.4618 20.1762 20.5417 19.9832 20.5417 19.7819V13.7448H18.9572C19.0041 13.9895 19.0312 14.2417 19.0312 14.5ZM14.5 17.5208C14.8968 17.5207 15.2897 17.4425 15.6563 17.2905C16.0228 17.1386 16.3559 16.9159 16.6364 16.6353C16.9169 16.3546 17.1394 16.0215 17.2911 15.6549C17.4429 15.2882 17.5209 14.8953 17.5208 14.4985C17.5207 14.1017 17.4425 13.7088 17.2905 13.3422C17.1386 12.9757 16.9159 12.6426 16.6353 12.3621C16.3546 12.0816 16.0215 11.8591 15.6549 11.7074C15.2882 11.5556 14.8953 11.4776 14.4985 11.4777C13.6971 11.4779 12.9286 11.7964 12.3621 12.3632C11.7956 12.93 11.4775 13.6986 11.4777 14.5C11.4779 15.3014 11.7964 16.0698 12.3632 16.6364C12.93 17.2029 13.6986 17.521 14.5 17.5208ZM18.125 11.3281H19.936C20.0563 11.3281 20.1717 11.2804 20.2569 11.1955C20.3421 11.1106 20.3902 10.9953 20.3906 10.875V9.06401C20.3906 8.94343 20.3427 8.8278 20.2575 8.74253C20.1722 8.65727 20.0566 8.60937 19.936 8.60937H18.125C18.0044 8.60937 17.8888 8.65727 17.8035 8.74253C17.7183 8.8278 17.6704 8.94343 17.6704 9.06401V10.875C17.6719 11.1242 17.8758 11.3281 18.125 11.3281ZM14.5 0C10.6544 0 6.96623 1.52767 4.24695 4.24695C1.52767 6.96623 0 10.6544 0 14.5C0 18.3456 1.52767 22.0338 4.24695 24.753C6.96623 27.4723 10.6544 29 14.5 29C16.4042 29 18.2897 28.6249 20.0489 27.8963C21.8081 27.1676 23.4066 26.0995 24.753 24.753C26.0995 23.4066 27.1676 21.8081 27.8963 20.0489C28.6249 18.2897 29 16.4042 29 14.5C29 12.5958 28.6249 10.7103 27.8963 8.95109C27.1676 7.19187 26.0995 5.5934 24.753 4.24695C23.4066 2.9005 21.8081 1.83244 20.0489 1.10375C18.2897 0.375054 16.4042 0 14.5 0ZM22.0521 20.374C22.0521 21.2969 21.2969 22.0521 20.374 22.0521H8.62599C7.70312 22.0521 6.94792 21.2969 6.94792 20.374V8.62599C6.94792 7.70312 7.70312 6.94792 8.62599 6.94792H20.374C21.2969 6.94792 22.0521 7.70312 22.0521 8.62599V20.374Z" fill="white"/>
</svg>
