<svg width="135" height="41" viewBox="0 0 135 41" fill="none" xmlns="http://www.w3.org/2000/svg">
<rect width="135" height="41" fill="#E5E5E5"/>
<g clip-path="url(#clip0_172_2252)">
<rect width="1440" height="1717" transform="translate(-653 -1290)" fill="white"/>
<rect x="-653" y="-48" width="1440" height="442" fill="#4E49B9"/>
<path d="M11.4732 17.9259H21.5441C21.4699 18.6984 21.4275 19.5132 21.4275 20.291C21.4209 22.2063 21.6523 24.1151 22.1166 25.9735H11.4732C10.9519 25.9787 10.4349 25.8797 9.95243 25.6826C9.47 25.4854 9.03191 25.194 8.66392 24.8254C8.28496 24.4601 7.98574 24.0205 7.78507 23.5343C7.5844 23.0481 7.4866 22.5257 7.49781 22C7.48326 21.4651 7.57665 20.9328 7.77243 20.4346C7.96821 19.9365 8.26238 19.4828 8.63742 19.1005C9.00628 18.7166 9.45142 18.4138 9.9443 18.2115C10.4372 18.0093 10.967 17.912 11.4997 17.9259H11.4732ZM16.9115 8.4021H24.8622C23.6276 10.3242 22.7162 12.435 22.1643 14.6508H16.885C16.478 14.6593 16.0736 14.5859 15.6956 14.435C15.3177 14.2841 14.9741 14.0588 14.6853 13.7725C14.3903 13.4901 14.1574 13.1495 14.0013 12.7724C13.8453 12.3953 13.7695 11.9899 13.7789 11.582C13.7678 11.1663 13.8404 10.7526 13.9924 10.3654C14.1445 9.97819 14.3729 9.62543 14.6641 9.32803C14.95 9.02979 15.2953 8.7947 15.6779 8.63795C16.0604 8.4812 16.4716 8.40626 16.885 8.41797L16.9115 8.4021ZM5.00658 29.2328H23.2562C24.4246 31.8541 26.0915 34.2242 28.1644 36.2116C28.5408 36.582 28.933 36.9365 29.3252 37.2698H5.00658C4.47985 37.2801 3.9565 37.1837 3.46818 36.9864C2.97985 36.789 2.5367 36.4949 2.16551 36.1217C1.78655 35.7564 1.48734 35.3168 1.28667 34.8306C1.08599 34.3444 0.988192 33.822 0.999404 33.2963C0.985459 32.7615 1.07913 32.2293 1.27488 31.7313C1.47062 31.2332 1.76446 30.7795 2.13901 30.3968C2.50961 30.0144 2.95605 29.7133 3.44981 29.5129C3.94357 29.3125 4.47379 29.2171 5.00658 29.2328ZM38.7495 16.1958H54.439C54.4577 17.2581 54.2559 18.3128 53.8463 19.2935C53.4368 20.2742 52.8282 21.1597 52.0591 21.8942C51.312 22.6508 50.4192 23.2485 49.4344 23.6513C48.4496 24.0542 47.3934 24.2538 46.3292 24.2381H38.7495C38.2241 24.2481 37.7021 24.152 37.2148 23.9556C36.7275 23.7592 36.285 23.4666 35.9138 23.0952C35.5348 22.7299 35.2356 22.2904 35.0349 21.8042C34.8342 21.3179 34.7364 20.7956 34.7477 20.2698C34.7333 19.7342 34.8268 19.2011 35.0225 18.7021C35.2183 18.2032 35.5123 17.7485 35.8873 17.3651C36.2566 16.9821 36.7019 16.6803 37.1948 16.4789C37.6877 16.2776 38.2172 16.1811 38.7495 16.1958Z" fill="#FF6600"/>
<path d="M100.808 0.608521C100.825 1.66801 100.625 2.71985 100.22 3.69905C99.8138 4.67825 99.2113 5.56402 98.4492 6.30164C97.7096 7.06118 96.822 7.66147 95.8411 8.0655C94.8602 8.46953 93.8068 8.66874 92.7459 8.65085H84.6361V40.4815C82.3822 40.4677 80.2245 39.5681 78.6302 37.9777C77.036 36.3873 76.1335 34.234 76.1182 31.9842V8.65085H70.5845V8.35984V7.9154V7.80429V7.46566V7.34926V7.25931V7.16407V7.04767V6.95244V6.88365V6.85191V6.76196V6.68259V6.59265V6.55032V6.46566V6.36513V6.32281V6.22228V6.12175V6.00005V5.96302V5.85191V5.7355L70.5527 5.61381L70.5156 5.48683L70.4785 5.35455L70.4414 5.23286L70.4043 5.11646L70.3672 5.00005L70.3301 4.89423V4.86778L70.2983 4.76725V4.7355L70.2612 4.64027V4.60323L70.2293 4.51328V4.47095L70.1975 4.39159L70.171 4.32281L70.1339 4.23815L70.1074 4.16408V4.13762L70.0756 4.07413L70.0491 4.00535V3.97889L70.0226 3.92069V3.89423L69.9855 3.82016L69.9484 3.74609L69.9113 3.67201V3.64027V3.59794L69.8 3.38101L69.747 3.29106V3.2646L69.694 3.16408L69.6357 3.05826L69.5721 2.94714L69.5032 2.83603L69.4343 2.71963L69.3654 2.60852L69.2965 2.49741L69.2329 2.40217L69.164 2.30693L69.1109 2.23286L69.0844 2.19582V2.16937L69.0208 2.08471V2.05296L68.9625 1.9736L68.936 1.94185L68.8671 1.8572L68.8141 1.78841L68.7505 1.70905L68.7134 1.65614L68.0296 1.23286L67.9607 1.15349V1.12175L67.8971 1.04767V1.01593L67.8229 0.936562L67.7434 0.846615L67.6586 0.756668L67.5791 0.672012H100.93L100.808 0.608521Z" fill="#FF6600"/>
<path d="M126.24 32.7355V20.5979C126.277 18.9873 125.969 17.3873 125.337 15.9047C124.706 14.4221 123.765 13.0909 122.577 12C120.231 9.66822 117.055 8.35909 113.744 8.35909C110.433 8.35909 107.257 9.66822 104.911 12C103.728 13.0939 102.791 14.4259 102.162 15.9081C101.534 17.3903 101.227 18.9888 101.264 20.5979C101.226 22.1931 101.529 23.778 102.153 25.247C102.778 26.7159 103.709 28.0351 104.884 29.1164C106.032 30.2893 107.409 31.2143 108.93 31.8341C110.451 32.4539 112.083 32.7553 113.725 32.7196L126.24 32.7355ZM134 20.5979V40.4815H113.725C111.079 40.5171 108.452 40.0201 106.003 39.0201C103.553 38.0202 101.33 36.5378 99.467 34.6614C97.55 32.8585 96.0298 30.6771 95.0032 28.2559C93.9766 25.8347 93.466 23.2268 93.5039 20.5979C93.4658 17.9589 93.976 15.3406 95.0023 12.9082C96.0286 10.4758 97.5488 8.28217 99.467 6.46563C103.265 2.71369 108.393 0.609131 113.736 0.609131C119.079 0.609131 124.207 2.71369 128.005 6.46563C129.931 8.2774 131.459 10.4694 132.491 12.9024C133.523 15.3354 134.037 17.9561 134 20.5979Z" fill="#FF6600"/>
<path d="M44.2041 40.4814C41.5222 40.5206 38.86 40.0187 36.3771 39.0059C33.8942 37.9931 31.6418 36.4901 29.755 34.5872C27.8126 32.7533 26.2734 30.5364 25.235 28.0771C24.1966 25.6178 23.6817 22.9699 23.723 20.3015C23.6821 17.6229 24.1969 14.9648 25.235 12.4945C26.2731 10.0241 27.812 7.79489 29.755 5.94698C31.6359 4.03365 33.8864 2.52141 36.37 1.50189C38.8537 0.482364 41.5189 -0.0232213 44.2041 0.0157668H56.215C56.233 1.07724 56.0309 2.13095 55.6213 3.11069C55.2118 4.09043 54.6036 4.97503 53.8351 5.70889C53.09 6.46889 52.1978 7.06957 51.2128 7.47435C50.2277 7.87913 49.1704 8.07954 48.1053 8.06339H44.2041C42.6135 8.0401 41.0358 8.35232 39.5744 8.97962C38.1129 9.60692 36.8006 10.5352 35.7233 11.7036C34.5996 12.8354 33.7122 14.1787 33.1126 15.6555C32.5129 17.1324 32.2131 18.7134 32.2303 20.3068C32.2102 21.8935 32.509 23.4681 33.109 24.9376C33.7089 26.4071 34.5979 27.7416 35.7233 28.8623C36.8084 30.0177 38.1232 30.934 39.5836 31.5527C41.044 32.1713 42.6178 32.4786 44.2041 32.4549H48.1053C49.1699 32.439 50.2267 32.639 51.2116 33.0428C52.1965 33.4466 53.089 34.0458 53.8351 34.8041C54.6028 35.5386 55.2105 36.4233 55.62 37.4029C56.0295 38.3825 56.2321 39.4359 56.215 40.4972L44.2041 40.4814Z" fill="#FF6600"/>
<path d="M67.5002 8.48145C67.5143 7.36306 67.2986 6.25365 66.8665 5.22169C66.4344 4.18974 65.795 3.25713 64.9877 2.48145C64.2062 1.68291 63.2694 1.05227 62.2349 0.628273C61.2003 0.204275 60.0899 -0.0041374 58.9717 0.0158377V31.9841C58.9842 34.2366 59.8873 36.3931 61.4844 37.9844C63.0816 39.5757 65.2436 40.4731 67.5002 40.4814V8.48145Z" fill="#FF6600"/>
</g>
<defs>
<clipPath id="clip0_172_2252">
<rect width="1440" height="1717" fill="white" transform="translate(-653 -1290)"/>
</clipPath>
</defs>
</svg>
