<svg width="26" height="26" viewBox="0 0 26 26" fill="none" xmlns="http://www.w3.org/2000/svg">
<path d="M24.8151 11.92H13.5116V15.196H21.5362C21.1294 19.768 17.2219 21.724 13.5239 21.724C8.80277 21.724 4.66102 18.1 4.66102 13C4.66102 8.08 8.60555 4.276 13.5362 4.276C17.3451 4.276 19.5763 6.64 19.5763 6.64L21.9183 4.264C21.9183 4.264 18.9106 1 13.4129 1C6.4114 1 1 6.76 1 13C1 19.06 6.09091 25 13.5978 25C20.1926 25 25 20.596 25 14.092C25 12.712 24.8151 11.92 24.8151 11.92Z" fill="#4E49B9" stroke="#4E49B9" stroke-width="2"/>
</svg>
