<svg width="24" height="29" viewBox="0 0 24 29" fill="none" xmlns="http://www.w3.org/2000/svg">
<path d="M6.85714 6.01378C1.71429 6.01378 0 11.3183 0 15.7387C0 21.0432 3.42857 29 6.85714 29C8.72229 28.9187 9.73543 28.1159 12 28.1159C14.2491 28.1159 14.5714 29 17.1429 29C19.7143 29 24 23.6955 24 20.1591C23.952 20.1415 19.7623 19.4466 19.7143 14.8546C19.6817 11.0177 23.856 9.63146 24 9.55013C22.2463 6.91202 18.9411 6.07921 18 6.01378C15.5434 5.81752 13.1486 7.78196 12 7.78196C10.8343 7.78196 8.74286 6.01378 6.85714 6.01378Z" fill="#4E49B9"/>
<path fill-rule="evenodd" clip-rule="evenodd" d="M16 0C14.7525 0 13.5172 0.36946 12.5716 1.07868C11.6204 1.79203 11 2.83107 11 4C11 4.55228 11.4477 5 12 5C13.2475 5 14.4828 4.63054 15.4284 3.92132C16.3796 3.20797 17 2.16893 17 1C17 0.734784 16.8946 0.48043 16.7071 0.292893C16.5196 0.105357 16.2652 0 16 0Z" fill="#4E49B9"/>
</svg>
