<svg width="133" height="54" viewBox="0 0 133 54" fill="none" xmlns="http://www.w3.org/2000/svg">
<g clip-path="url(#clip0_172_3132)">
<path d="M107.165 52.3122V53.9841H106.063V52.2804L104.213 49.2222H105.384L106.662 51.3386L107.939 49.2222H108.999L107.165 52.3122ZM99.0769 50.963C99.0846 50.8467 99.0652 50.7303 99.0201 50.6229C98.9751 50.5154 98.9056 50.4199 98.8172 50.3439C98.5967 50.1878 98.3288 50.113 98.0592 50.1323H97.1581V51.7937H98.0592C98.3294 51.8114 98.5974 51.7347 98.8172 51.5767C98.9045 51.501 98.9733 51.4063 99.0184 51.2999C99.0634 51.1935 99.0834 51.0783 99.0769 50.963ZM99.0769 54L98.1546 52.672H97.1369V53.9841H96.0344V49.2222H98.1016C98.48 49.2134 98.856 49.2855 99.2041 49.4339C99.4972 49.5572 99.7464 49.7655 99.9197 50.0317C100.094 50.3068 100.182 50.6271 100.174 50.9524C100.183 51.2761 100.095 51.595 99.9197 51.8677C99.742 52.1317 99.489 52.3363 99.1935 52.455L100.254 53.9894L99.0769 54ZM91.2799 53.1164V53.9841H87.5695V49.2222H91.1792V50.1058H88.6667V51.164H90.8876V52.0212H88.6667V53.127L91.2799 53.1164ZM83.3291 49.2328L81.2619 53.9947H80.1753L78.1134 49.2328H79.3061L80.7584 52.6402L82.2319 49.2328H83.3291ZM72.6486 49.2328H73.7564V53.9947H72.6486V49.2328ZM64.6555 49.2328H65.7633V53.1005H68.1538V53.9841H64.6555V49.2328ZM59.885 53.1164V53.9841H56.1747V49.2222H59.7843V50.1058H57.2772V51.164H59.4928V52.0212H57.2772V53.127L59.885 53.1164ZM48.7911 53.1164C49.2098 53.1373 49.6204 52.995 49.936 52.7196C50.2102 52.4258 50.3627 52.0391 50.3627 51.6376C50.3627 51.236 50.2102 50.8494 49.936 50.5556C49.6204 50.2801 49.2098 50.1378 48.7911 50.1587H47.784V53.1164H48.7911ZM46.6709 49.254H48.8441C49.3185 49.2457 49.7884 49.3471 50.2169 49.5503C50.5999 49.7346 50.9219 50.0247 51.1445 50.3862C51.36 50.7682 51.4732 51.1992 51.4732 51.6376C51.4732 52.0759 51.36 52.5069 51.1445 52.8889C50.9219 53.2504 50.5999 53.5406 50.2169 53.7249C49.7884 53.9281 49.3185 54.0295 48.8441 54.0212H46.6709V49.254Z" fill="#FF6600"/>
<path d="M10.4742 17.9259H20.5451C20.4709 18.6984 20.4285 19.5132 20.4285 20.291C20.4218 22.2064 20.6533 24.1151 21.1175 25.9736H10.4742C9.95288 25.9787 9.43583 25.8798 8.9534 25.6826C8.47097 25.4854 8.03289 25.194 7.66489 24.8254C7.28593 24.4601 6.98672 24.0206 6.78605 23.5344C6.58537 23.0481 6.48757 22.5258 6.49879 22C6.48424 21.4651 6.57763 20.9328 6.77341 20.4347C6.96919 19.9366 7.26335 19.4828 7.63839 19.1005C8.00726 18.7166 8.45239 18.4138 8.94528 18.2116C9.43816 18.0093 9.96793 17.912 10.5007 17.9259H10.4742ZM15.9125 8.40213H23.8632C22.6286 10.3242 21.7172 12.435 21.1653 14.6508H15.886C15.479 14.6593 15.0745 14.5859 14.6966 14.435C14.3187 14.2841 13.9751 14.0588 13.6863 13.7725C13.3913 13.4901 13.1583 13.1495 13.0023 12.7724C12.8463 12.3953 12.7705 11.9899 12.7799 11.582C12.7687 11.1663 12.8413 10.7526 12.9934 10.3654C13.1454 9.97822 13.3738 9.62546 13.6651 9.32806C13.9509 9.02982 14.2963 8.79473 14.6788 8.63798C15.0614 8.48123 15.4726 8.40629 15.886 8.418L15.9125 8.40213ZM4.00755 29.2328H22.2572C23.4255 31.8541 25.0924 34.2242 27.1654 36.2117C27.5417 36.582 27.934 36.9365 28.3262 37.2699H4.00755C3.48083 37.2802 2.95748 37.1837 2.46915 36.9864C1.98083 36.789 1.53767 36.4949 1.16649 36.1217C0.787527 35.7564 0.488316 35.3169 0.287643 34.8306C0.0869694 34.3444 -0.0108314 33.8221 0.000380208 33.2963C-0.0135649 32.7615 0.0801069 32.2293 0.275853 31.7313C0.471598 31.2333 0.765439 30.7795 1.13999 30.3968C1.51059 30.0144 1.95703 29.7134 2.45079 29.5129C2.94455 29.3125 3.47476 29.2171 4.00755 29.2328ZM37.7505 16.1958H53.44C53.4587 17.2581 53.2569 18.3129 52.8473 19.2936C52.4377 20.2743 51.8292 21.1597 51.06 21.8942C50.313 22.6508 49.4201 23.2485 48.4354 23.6514C47.4506 24.0542 46.3943 24.2538 45.3302 24.2381H37.7505C37.2251 24.2481 36.7031 24.152 36.2158 23.9556C35.7285 23.7592 35.2859 23.4666 34.9147 23.0952C34.5358 22.73 34.2366 22.2904 34.0359 21.8042C33.8352 21.318 33.7374 20.7956 33.7486 20.2699C33.7343 19.7342 33.8277 19.2011 34.0235 18.7022C34.2192 18.2032 34.5133 17.7486 34.8882 17.3651C35.2576 16.9821 35.7029 16.6803 36.1958 16.479C36.6886 16.2776 37.2182 16.1812 37.7505 16.1958Z" fill="#FF6600"/>
<path d="M99.8079 0.608459C99.8255 1.66795 99.6252 2.71979 99.2195 3.69899C98.8138 4.67819 98.2113 5.56396 97.4492 6.30158C96.7096 7.06112 95.822 7.66141 94.8411 8.06544C93.8602 8.46947 92.8068 8.66868 91.7459 8.65079H83.6361V40.4815C81.3822 40.4676 79.2245 39.5681 77.6302 37.9777C76.036 36.3872 75.1335 34.234 75.1182 31.9841V8.65079H69.5845V8.35978V7.91534V7.80423V7.4656V7.3492V7.25925V7.16401V7.04761V6.95237V6.88359V6.85184V6.7619V6.68253V6.59259V6.55026V6.4656V6.36507V6.32274V6.22222V6.12169V5.99999V5.96296V5.85185V5.73544L69.5527 5.61375L69.5156 5.48677L69.4785 5.35449L69.4414 5.2328L69.4043 5.1164L69.3672 4.99999L69.3301 4.89417V4.86772L69.2983 4.76719V4.73544L69.2612 4.6402V4.60317L69.2293 4.51322V4.47089L69.1975 4.39153L69.171 4.32274L69.1339 4.23809L69.1074 4.16401V4.13756L69.0756 4.07407L69.0491 4.00529V3.97883L69.0226 3.92063V3.89417L68.9855 3.8201L68.9484 3.74602L68.9113 3.67195V3.64021V3.59788L68.8 3.38095L68.747 3.291V3.26454L68.694 3.16402L68.6357 3.05819L68.5721 2.94708L68.5032 2.83597L68.4343 2.71957L68.3654 2.60846L68.2965 2.49735L68.2329 2.40211L68.164 2.30687L68.1109 2.2328L68.0844 2.19576V2.16931L68.0208 2.08465V2.0529L67.9625 1.97354L67.936 1.94179L67.8671 1.85714L67.8141 1.78835L67.7505 1.70899L67.7134 1.65608L67.0296 1.2328L66.9607 1.15343V1.12169L66.8971 1.04761V1.01587L66.8229 0.936501L66.7434 0.846554L66.6586 0.756607L66.5791 0.671951H99.9298L99.8079 0.608459Z" fill="#FF6600"/>
<path d="M125.24 32.7354V20.5979C125.277 18.9872 124.969 17.3872 124.337 15.9047C123.706 14.4221 122.765 13.0909 121.577 12C119.231 9.66819 116.055 8.35906 112.744 8.35906C109.433 8.35906 106.257 9.66819 103.911 12C102.728 13.0938 101.791 14.4259 101.162 15.9081C100.534 17.3902 100.227 18.9887 100.264 20.5979C100.226 22.1931 100.529 23.778 101.153 25.2469C101.778 26.7159 102.709 28.035 103.884 29.1164C105.032 30.2893 106.409 31.2143 107.93 31.8341C109.451 32.4539 111.083 32.7553 112.725 32.7196L125.24 32.7354ZM133 20.5979V40.4815H112.725C110.079 40.5171 107.452 40.0201 105.003 39.0201C102.553 38.0201 100.33 36.5377 98.467 34.6614C96.55 32.8585 95.0298 30.6771 94.0032 28.2559C92.9766 25.8347 92.466 23.2267 92.5039 20.5979C92.4658 17.9588 92.976 15.3405 94.0023 12.9082C95.0286 10.4758 96.5488 8.28214 98.467 6.4656C102.265 2.71365 107.393 0.6091 112.736 0.6091C118.079 0.6091 123.207 2.71365 127.005 6.4656C128.931 8.27737 130.459 10.4694 131.491 12.9024C132.523 15.3353 133.037 17.956 133 20.5979Z" fill="#FF6600"/>
<path d="M43.2041 40.4815C40.5222 40.5207 37.86 40.0188 35.3771 39.006C32.8942 37.9932 30.6418 36.4902 28.755 34.5873C26.8126 32.7534 25.2734 30.5365 24.235 28.0772C23.1966 25.6179 22.6817 22.97 22.723 20.3016C22.6821 17.623 23.1969 14.9649 24.235 12.4946C25.2731 10.0242 26.812 7.79498 28.755 5.94707C30.6359 4.03374 32.8864 2.5215 35.37 1.50198C37.8537 0.482455 40.5189 -0.0231297 43.2041 0.0158583H55.215C55.233 1.07733 55.0309 2.13104 54.6213 3.11078C54.2118 4.09052 53.6036 4.97512 52.8351 5.70898C52.09 6.46898 51.1978 7.06966 50.2128 7.47444C49.2277 7.87922 48.1704 8.07963 47.1053 8.06348H43.2041C41.6135 8.04019 40.0358 8.35242 38.5744 8.97971C37.1129 9.60701 35.8006 10.5352 34.7233 11.7037C33.5996 12.8355 32.7122 14.1788 32.1126 15.6556C31.5129 17.1325 31.2131 18.7134 31.2303 20.3069C31.2102 21.8936 31.509 23.4682 32.109 24.9377C32.7089 26.4072 33.5979 27.7417 34.7233 28.8624C35.8084 30.0178 37.1232 30.9341 38.5836 31.5528C40.044 32.1714 41.6178 32.4787 43.2041 32.455H47.1053C48.1699 32.4391 49.2267 32.6391 50.2116 33.0429C51.1965 33.4467 52.089 34.0459 52.8351 34.8042C53.6028 35.5387 54.2105 36.4234 54.62 37.403C55.0295 38.3826 55.2321 39.436 55.215 40.4973L43.2041 40.4815Z" fill="#FF6600"/>
<path d="M66.5002 8.48148C66.5143 7.36309 66.2986 6.25368 65.8665 5.22172C65.4344 4.18977 64.795 3.25716 63.9877 2.48148C63.2062 1.68294 62.2694 1.0523 61.2349 0.628304C60.2003 0.204305 59.0899 -0.00410688 57.9717 0.0158683V31.9841C57.9842 34.2366 58.8873 36.3931 60.4844 37.9844C62.0816 39.5757 64.2436 40.4731 66.5002 40.4815V8.48148Z" fill="#FF6600"/>
</g>
<defs>
<clipPath id="clip0_172_3132">
<rect width="133" height="54" fill="white"/>
</clipPath>
</defs>
</svg>
