<svg width="16" height="16" viewBox="0 0 16 16" fill="none" xmlns="http://www.w3.org/2000/svg">
<g opacity="0.5">
<path d="M7.33203 2.66669H2.66536C2.31174 2.66669 1.9726 2.80716 1.72256 3.05721C1.47251 3.30726 1.33203 3.6464 1.33203 4.00002V13.3334C1.33203 13.687 1.47251 14.0261 1.72256 14.2762C1.9726 14.5262 2.31174 14.6667 2.66536 14.6667H11.9987C12.3523 14.6667 12.6915 14.5262 12.9415 14.2762C13.1916 14.0261 13.332 13.687 13.332 13.3334V8.66669" stroke="black" stroke-width="1.2" stroke-linecap="round" stroke-linejoin="round"/>
<path d="M12.332 1.66665C12.5972 1.40144 12.957 1.25244 13.332 1.25244C13.7071 1.25244 14.0668 1.40144 14.332 1.66665C14.5972 1.93187 14.7462 2.29158 14.7462 2.66665C14.7462 3.04173 14.5972 3.40144 14.332 3.66665L7.9987 9.99999L5.33203 10.6667L5.9987 7.99999L12.332 1.66665Z" stroke="black" stroke-width="1.2" stroke-linecap="round" stroke-linejoin="round"/>
</g>
</svg>
