<svg width="12" height="16" viewBox="0 0 12 16" fill="none" xmlns="http://www.w3.org/2000/svg">
<path d="M3.6452 5.59636L3.6437 5.59758L3.64227 5.59897L3.6452 5.59636ZM10.2813 5.47201C10.2349 5.42731 10.1834 5.38819 10.1279 5.35547C10.0494 5.30924 9.96221 5.27962 9.87176 5.26843C9.78131 5.25724 9.68953 5.26472 9.60209 5.29041C9.51465 5.3161 9.43341 5.35945 9.36339 5.41779C9.29337 5.47612 9.23606 5.5482 9.195 5.62956C8.96535 6.08202 8.64863 6.48469 8.263 6.81446C8.32197 6.48219 8.35171 6.1454 8.35187 5.80794C8.35311 4.78134 8.08228 3.77275 7.56697 2.88485C7.05166 1.99695 6.31027 1.26147 5.41827 0.753276C5.32001 0.697574 5.20921 0.667749 5.09626 0.666599C4.98332 0.66545 4.87193 0.693013 4.77256 0.746704C4.67318 0.800394 4.58908 0.878451 4.52813 0.97355C4.46719 1.06865 4.4314 1.17767 4.42413 1.29039C4.38683 1.92251 4.22158 2.54047 3.93839 3.10683C3.65521 3.6732 3.25999 4.17618 2.77669 4.5853L2.62304 4.7103C2.11765 5.05036 1.6703 5.46956 1.29817 5.95183C0.719717 6.68057 0.319004 7.53406 0.127812 8.44462C-0.0633806 9.35517 -0.0397929 10.2978 0.196704 11.1976C0.433201 12.0975 0.876103 12.9298 1.49029 13.6287C2.10447 14.3276 2.87304 14.8738 3.73505 15.224C3.83626 15.2653 3.94609 15.2811 4.05486 15.27C4.16363 15.2589 4.26799 15.2212 4.35873 15.1602C4.44948 15.0992 4.52382 15.0168 4.5752 14.9203C4.62658 14.8238 4.65342 14.7161 4.65335 14.6068C4.65288 14.5361 4.64168 14.4658 4.62015 14.3984C4.471 13.8378 4.42805 13.2542 4.49352 12.6777C5.12435 13.8676 6.13695 14.8107 7.36852 15.3555C7.51885 15.4227 7.68879 15.4318 7.84541 15.3809C8.81845 15.0668 9.69503 14.5092 10.3918 13.7609C11.0887 13.0126 11.5826 12.0986 11.8267 11.1057C12.0707 10.1128 12.0569 9.074 11.7864 8.08796C11.5159 7.10192 10.9978 6.20141 10.2813 5.47201ZM7.67808 14.026C7.09696 13.7315 6.58433 13.318 6.17352 12.8124C5.76271 12.3067 5.46292 11.7203 5.29364 11.0912C5.24194 10.8793 5.20195 10.6648 5.17385 10.4486C5.15481 10.3109 5.09321 10.1826 4.99766 10.0816C4.90212 9.98063 4.77741 9.91204 4.64097 9.88542C4.59894 9.87714 4.5562 9.87299 4.51335 9.87306C4.39618 9.87301 4.28107 9.90387 4.17963 9.96251C4.07818 10.0211 3.994 10.1055 3.93555 10.2071C3.3824 11.1611 3.10422 12.2497 3.13184 13.3522C2.64533 12.974 2.23874 12.5029 1.93563 11.9664C1.63251 11.4298 1.4389 10.8384 1.36602 10.2265C1.29314 9.61457 1.34244 8.99426 1.51106 8.40152C1.67967 7.80878 1.96426 7.25541 2.34831 6.77346C2.63992 6.39469 2.99171 6.06632 3.38965 5.80146C3.40688 5.79034 3.4234 5.77817 3.43913 5.765C3.43913 5.765 3.63692 5.60135 3.64368 5.5976C4.59348 4.79424 5.26902 3.71461 5.57617 2.50914C6.30255 3.18063 6.7869 4.07316 6.95401 5.04815C7.12112 6.02313 6.96164 7.02602 6.50033 7.90107C6.43938 8.01784 6.41438 8.15004 6.42848 8.281C6.44257 8.41196 6.49514 8.53581 6.57954 8.63693C6.66395 8.73805 6.77641 8.8119 6.90274 8.84918C7.02907 8.88646 7.16361 8.8855 7.28939 8.8464C8.31058 8.52629 9.20919 7.90101 9.86426 7.05474C10.258 7.63627 10.5154 8.29914 10.6173 8.99398C10.7192 9.68881 10.663 10.3977 10.4528 11.0678C10.2427 11.7379 9.88403 12.3519 9.4036 12.8641C8.92316 13.3763 8.33333 13.7735 7.67806 14.0261L7.67808 14.026Z" fill="black"/>
</svg>
