<svg width="26" height="26" viewBox="0 0 26 26" fill="none" xmlns="http://www.w3.org/2000/svg">
<rect width="26" height="26" rx="2" fill="#FCDCDC"/>
<path d="M8.45117 9.96667H9.46228H17.5512" stroke="#F41717" stroke-linecap="round" stroke-linejoin="round"/>
<path d="M10.9776 9.96662V8.95551C10.9776 8.68734 11.0841 8.43016 11.2738 8.24054C11.4634 8.05092 11.7206 7.9444 11.9887 7.9444H14.0109C14.2791 7.9444 14.5363 8.05092 14.7259 8.24054C14.9155 8.43016 15.022 8.68734 15.022 8.95551V9.96662M16.5387 9.96662V17.0444C16.5387 17.3126 16.4322 17.5697 16.2426 17.7594C16.0529 17.949 15.7958 18.0555 15.5276 18.0555H10.472C10.2039 18.0555 9.94671 17.949 9.75709 17.7594C9.56746 17.5697 9.46094 17.3126 9.46094 17.0444V9.96662H16.5387Z" stroke="#F41717" stroke-linecap="round" stroke-linejoin="round"/>
</svg>
