<svg width="418" height="128" viewBox="0 0 418 128" fill="none" xmlns="http://www.w3.org/2000/svg">
<g filter="url(#filter0_d_176_6742)">
<rect x="8" width="402" height="112" rx="12" fill="white"/>
<circle cx="64" cy="56" r="38" fill="#69D381"/>
<path d="M74.4408 52.6473C74.7023 52.3857 74.8493 52.031 74.8493 51.6611C74.8493 51.2911 74.7023 50.9364 74.4408 50.6748C74.1792 50.4132 73.8244 50.2663 73.4545 50.2663C73.0846 50.2663 72.7298 50.4132 72.4682 50.6748L65.0963 58.0495L61.9035 54.8539C61.774 54.7244 61.6202 54.6216 61.451 54.5515C61.2818 54.4814 61.1004 54.4454 60.9173 54.4454C60.7341 54.4454 60.5527 54.4814 60.3835 54.5515C60.2143 54.6216 60.0605 54.7244 59.931 54.8539C59.8015 54.9834 59.6987 55.1372 59.6286 55.3064C59.5585 55.4756 59.5225 55.657 59.5225 55.8401C59.5225 56.0233 59.5585 56.2047 59.6286 56.3739C59.6987 56.5431 59.8015 56.6969 59.931 56.8264L64.1101 61.0055C64.2395 61.1352 64.3932 61.2381 64.5624 61.3084C64.7317 61.3786 64.9131 61.4147 65.0963 61.4147C65.2796 61.4147 65.461 61.3786 65.6302 61.3084C65.7995 61.2381 65.9532 61.1352 66.0826 61.0055L74.4408 52.6473Z" fill="white"/>
<path d="M44.2006 37.7308C43.8312 37.7308 43.4769 37.8775 43.2156 38.1388C42.9544 38.4 42.8076 38.7543 42.8076 39.1238C42.8076 39.4933 42.9544 39.8476 43.2156 40.1088C43.4769 40.3701 43.8312 40.5168 44.2006 40.5168H47.2932L48.4104 44.994L52.5839 67.2407C52.6437 67.5599 52.8131 67.8482 53.0628 68.0558C53.3126 68.2633 53.6271 68.3771 53.9518 68.3774H56.7379C55.2601 68.3774 53.8428 68.9645 52.7978 70.0094C51.7529 71.0544 51.1658 72.4717 51.1658 73.9495C51.1658 75.4273 51.7529 76.8446 52.7978 77.8896C53.8428 78.9346 55.2601 79.5216 56.7379 79.5216C58.2157 79.5216 59.633 78.9346 60.678 77.8896C61.723 76.8446 62.31 75.4273 62.31 73.9495C62.31 72.4717 61.723 71.0544 60.678 70.0094C59.633 68.9645 58.2157 68.3774 56.7379 68.3774H76.2403C74.7625 68.3774 73.3452 68.9645 72.3002 70.0094C71.2553 71.0544 70.6682 72.4717 70.6682 73.9495C70.6682 75.4273 71.2553 76.8446 72.3002 77.8896C73.3452 78.9346 74.7625 79.5216 76.2403 79.5216C77.7181 79.5216 79.1354 78.9346 80.1804 77.8896C81.2254 76.8446 81.8124 75.4273 81.8124 73.9495C81.8124 72.4717 81.2254 71.0544 80.1804 70.0094C79.1354 68.9645 77.7181 68.3774 76.2403 68.3774H79.0264C79.3511 68.3771 79.6656 68.2633 79.9154 68.0558C80.1652 67.8482 80.3346 67.5599 80.3943 67.2407L84.5734 44.9522C84.611 44.7512 84.6039 44.5443 84.5526 44.3463C84.5013 44.1483 84.407 43.9641 84.2764 43.8066C84.1458 43.6492 83.9822 43.5224 83.7971 43.4354C83.612 43.3483 83.41 43.3031 83.2055 43.3029H50.8593L49.731 38.7867C49.6558 38.4852 49.4819 38.2175 49.2371 38.0262C48.9922 37.8348 48.6905 37.7309 48.3797 37.7308H44.2006ZM55.1081 65.5914L51.45 46.0889H81.5282L77.8702 65.5914H55.1081ZM59.524 73.9495C59.524 74.6884 59.2304 75.3971 58.7079 75.9196C58.1855 76.4421 57.4768 76.7356 56.7379 76.7356C55.999 76.7356 55.2904 76.4421 54.7679 75.9196C54.2454 75.3971 53.9518 74.6884 53.9518 73.9495C53.9518 73.2106 54.2454 72.502 54.7679 71.9795C55.2904 71.457 55.999 71.1635 56.7379 71.1635C57.4768 71.1635 58.1855 71.457 58.7079 71.9795C59.2304 72.502 59.524 73.2106 59.524 73.9495ZM79.0264 73.9495C79.0264 74.6884 78.7328 75.3971 78.2104 75.9196C77.6879 76.4421 76.9792 76.7356 76.2403 76.7356C75.5014 76.7356 74.7928 76.4421 74.2703 75.9196C73.7478 75.3971 73.4543 74.6884 73.4543 73.9495C73.4543 73.2106 73.7478 72.502 74.2703 71.9795C74.7928 71.457 75.5014 71.1635 76.2403 71.1635C76.9792 71.1635 77.6879 71.457 78.2104 71.9795C78.7328 72.502 79.0264 73.2106 79.0264 73.9495Z" fill="white"/>
<path d="M139.22 41.24C139.22 41.9467 139.053 42.6133 138.72 43.24C138.387 43.8667 137.853 44.38 137.12 44.78C136.387 45.1667 135.447 45.36 134.3 45.36H131.78V51H129.5V37.1H134.3C135.367 37.1 136.267 37.2867 137 37.66C137.747 38.02 138.3 38.5133 138.66 39.14C139.033 39.7667 139.22 40.4667 139.22 41.24ZM134.3 43.5C135.167 43.5 135.813 43.3067 136.24 42.92C136.667 42.52 136.88 41.96 136.88 41.24C136.88 39.72 136.02 38.96 134.3 38.96H131.78V43.5H134.3ZM143.675 41.58C144.008 41.02 144.448 40.5867 144.995 40.28C145.555 39.96 146.215 39.8 146.975 39.8V42.16H146.395C145.501 42.16 144.821 42.3867 144.355 42.84C143.901 43.2933 143.675 44.08 143.675 45.2V51H141.395V39.98H143.675V41.58ZM153.85 51.18C152.81 51.18 151.87 50.9467 151.03 50.48C150.19 50 149.53 49.3333 149.05 48.48C148.57 47.6133 148.33 46.6133 148.33 45.48C148.33 44.36 148.577 43.3667 149.07 42.5C149.564 41.6333 150.237 40.9667 151.09 40.5C151.944 40.0333 152.897 39.8 153.95 39.8C155.004 39.8 155.957 40.0333 156.81 40.5C157.664 40.9667 158.337 41.6333 158.83 42.5C159.324 43.3667 159.57 44.36 159.57 45.48C159.57 46.6 159.317 47.5933 158.81 48.46C158.304 49.3267 157.61 50 156.73 50.48C155.864 50.9467 154.904 51.18 153.85 51.18ZM153.85 49.2C154.437 49.2 154.984 49.06 155.49 48.78C156.01 48.5 156.43 48.08 156.75 47.52C157.07 46.96 157.23 46.28 157.23 45.48C157.23 44.68 157.077 44.0067 156.77 43.46C156.464 42.9 156.057 42.48 155.55 42.2C155.044 41.92 154.497 41.78 153.91 41.78C153.324 41.78 152.777 41.92 152.27 42.2C151.777 42.48 151.384 42.9 151.09 43.46C150.797 44.0067 150.65 44.68 150.65 45.48C150.65 46.6667 150.95 47.5867 151.55 48.24C152.164 48.88 152.93 49.2 153.85 49.2ZM161.064 45.44C161.064 44.3333 161.291 43.3533 161.744 42.5C162.211 41.6467 162.838 40.9867 163.624 40.52C164.424 40.04 165.311 39.8 166.284 39.8C167.004 39.8 167.711 39.96 168.404 40.28C169.111 40.5867 169.671 41 170.084 41.52V36.2H172.384V51H170.084V49.34C169.711 49.8733 169.191 50.3133 168.524 50.66C167.871 51.0067 167.118 51.18 166.264 51.18C165.304 51.18 164.424 50.94 163.624 50.46C162.838 49.9667 162.211 49.2867 161.744 48.42C161.291 47.54 161.064 46.5467 161.064 45.44ZM170.084 45.48C170.084 44.72 169.924 44.06 169.604 43.5C169.298 42.94 168.891 42.5133 168.384 42.22C167.878 41.9267 167.331 41.78 166.744 41.78C166.158 41.78 165.611 41.9267 165.104 42.22C164.598 42.5 164.184 42.92 163.864 43.48C163.558 44.0267 163.404 44.68 163.404 45.44C163.404 46.2 163.558 46.8667 163.864 47.44C164.184 48.0133 164.598 48.4533 165.104 48.76C165.624 49.0533 166.171 49.2 166.744 49.2C167.331 49.2 167.878 49.0533 168.384 48.76C168.891 48.4667 169.298 48.04 169.604 47.48C169.924 46.9067 170.084 46.24 170.084 45.48ZM185.359 39.98V51H183.079V49.7C182.719 50.1533 182.246 50.5133 181.659 50.78C181.086 51.0333 180.472 51.16 179.819 51.16C178.952 51.16 178.172 50.98 177.479 50.62C176.799 50.26 176.259 49.7267 175.859 49.02C175.472 48.3133 175.279 47.46 175.279 46.46V39.98H177.539V46.12C177.539 47.1067 177.786 47.8667 178.279 48.4C178.772 48.92 179.446 49.18 180.299 49.18C181.152 49.18 181.826 48.92 182.319 48.4C182.826 47.8667 183.079 47.1067 183.079 46.12V39.98H185.359ZM191.027 41.84V47.94C191.027 48.3533 191.121 48.6533 191.307 48.84C191.507 49.0133 191.841 49.1 192.307 49.1H193.707V51H191.907C190.881 51 190.094 50.76 189.547 50.28C189.001 49.8 188.727 49.02 188.727 47.94V41.84H187.427V39.98H188.727V37.24H191.027V39.98H193.707V41.84H191.027ZM200.589 51.18C199.549 51.18 198.609 50.9467 197.769 50.48C196.929 50 196.269 49.3333 195.789 48.48C195.309 47.6133 195.069 46.6133 195.069 45.48C195.069 44.36 195.315 43.3667 195.809 42.5C196.302 41.6333 196.975 40.9667 197.829 40.5C198.682 40.0333 199.635 39.8 200.689 39.8C201.742 39.8 202.695 40.0333 203.549 40.5C204.402 40.9667 205.075 41.6333 205.569 42.5C206.062 43.3667 206.309 44.36 206.309 45.48C206.309 46.6 206.055 47.5933 205.549 48.46C205.042 49.3267 204.349 50 203.469 50.48C202.602 50.9467 201.642 51.18 200.589 51.18ZM200.589 49.2C201.175 49.2 201.722 49.06 202.229 48.78C202.749 48.5 203.169 48.08 203.489 47.52C203.809 46.96 203.969 46.28 203.969 45.48C203.969 44.68 203.815 44.0067 203.509 43.46C203.202 42.9 202.795 42.48 202.289 42.2C201.782 41.92 201.235 41.78 200.649 41.78C200.062 41.78 199.515 41.92 199.009 42.2C198.515 42.48 198.122 42.9 197.829 43.46C197.535 44.0067 197.389 44.68 197.389 45.48C197.389 46.6667 197.689 47.5867 198.289 48.24C198.902 48.88 199.669 49.2 200.589 49.2ZM212.998 45.44C212.998 44.3333 213.224 43.3533 213.678 42.5C214.144 41.6467 214.771 40.9867 215.558 40.52C216.358 40.04 217.238 39.8 218.198 39.8C219.064 39.8 219.818 39.9733 220.458 40.32C221.111 40.6533 221.631 41.0733 222.018 41.58V39.98H224.318V51H222.018V49.36C221.631 49.88 221.104 50.3133 220.438 50.66C219.771 51.0067 219.011 51.18 218.158 51.18C217.211 51.18 216.344 50.94 215.558 50.46C214.771 49.9667 214.144 49.2867 213.678 48.42C213.224 47.54 212.998 46.5467 212.998 45.44ZM222.018 45.48C222.018 44.72 221.858 44.06 221.538 43.5C221.231 42.94 220.824 42.5133 220.318 42.22C219.811 41.9267 219.264 41.78 218.678 41.78C218.091 41.78 217.544 41.9267 217.038 42.22C216.531 42.5 216.118 42.92 215.798 43.48C215.491 44.0267 215.338 44.68 215.338 45.44C215.338 46.2 215.491 46.8667 215.798 47.44C216.118 48.0133 216.531 48.4533 217.038 48.76C217.558 49.0533 218.104 49.2 218.678 49.2C219.264 49.2 219.811 49.0533 220.318 48.76C220.824 48.4667 221.231 48.04 221.538 47.48C221.858 46.9067 222.018 46.24 222.018 45.48ZM226.553 45.44C226.553 44.3333 226.779 43.3533 227.233 42.5C227.699 41.6467 228.326 40.9867 229.113 40.52C229.913 40.04 230.799 39.8 231.773 39.8C232.493 39.8 233.199 39.96 233.893 40.28C234.599 40.5867 235.159 41 235.573 41.52V36.2H237.873V51H235.573V49.34C235.199 49.8733 234.679 50.3133 234.013 50.66C233.359 51.0067 232.606 51.18 231.753 51.18C230.793 51.18 229.913 50.94 229.113 50.46C228.326 49.9667 227.699 49.2867 227.233 48.42C226.779 47.54 226.553 46.5467 226.553 45.44ZM235.573 45.48C235.573 44.72 235.413 44.06 235.093 43.5C234.786 42.94 234.379 42.5133 233.873 42.22C233.366 41.9267 232.819 41.78 232.233 41.78C231.646 41.78 231.099 41.9267 230.593 42.22C230.086 42.5 229.673 42.92 229.353 43.48C229.046 44.0267 228.893 44.68 228.893 45.44C228.893 46.2 229.046 46.8667 229.353 47.44C229.673 48.0133 230.086 48.4533 230.593 48.76C231.113 49.0533 231.659 49.2 232.233 49.2C232.819 49.2 233.366 49.0533 233.873 48.76C234.379 48.4667 234.786 48.04 235.093 47.48C235.413 46.9067 235.573 46.24 235.573 45.48ZM242.027 38.52C241.614 38.52 241.267 38.38 240.987 38.1C240.707 37.82 240.567 37.4733 240.567 37.06C240.567 36.6467 240.707 36.3 240.987 36.02C241.267 35.74 241.614 35.6 242.027 35.6C242.427 35.6 242.767 35.74 243.047 36.02C243.327 36.3 243.467 36.6467 243.467 37.06C243.467 37.4733 243.327 37.82 243.047 38.1C242.767 38.38 242.427 38.52 242.027 38.52ZM243.147 39.98V51H240.867V39.98H243.147ZM245.381 45.48C245.381 44.3467 245.607 43.3533 246.061 42.5C246.527 41.6333 247.167 40.9667 247.981 40.5C248.794 40.0333 249.727 39.8 250.781 39.8C252.114 39.8 253.214 40.12 254.081 40.76C254.961 41.3867 255.554 42.2867 255.861 43.46H253.401C253.201 42.9133 252.881 42.4867 252.441 42.18C252.001 41.8733 251.447 41.72 250.781 41.72C249.847 41.72 249.101 42.0533 248.541 42.72C247.994 43.3733 247.721 44.2933 247.721 45.48C247.721 46.6667 247.994 47.5933 248.541 48.26C249.101 48.9267 249.847 49.26 250.781 49.26C252.101 49.26 252.974 48.68 253.401 47.52H255.861C255.541 48.64 254.941 49.5333 254.061 50.2C253.181 50.8533 252.087 51.18 250.781 51.18C249.727 51.18 248.794 50.9467 247.981 50.48C247.167 50 246.527 49.3333 246.061 48.48C245.607 47.6133 245.381 46.6133 245.381 45.48ZM259.293 38.52C258.879 38.52 258.533 38.38 258.253 38.1C257.973 37.82 257.833 37.4733 257.833 37.06C257.833 36.6467 257.973 36.3 258.253 36.02C258.533 35.74 258.879 35.6 259.293 35.6C259.693 35.6 260.033 35.74 260.313 36.02C260.593 36.3 260.733 36.6467 260.733 37.06C260.733 37.4733 260.593 37.82 260.313 38.1C260.033 38.38 259.693 38.52 259.293 38.52ZM260.413 39.98V51H258.133V39.98H260.413ZM268.186 51.18C267.146 51.18 266.206 50.9467 265.366 50.48C264.526 50 263.866 49.3333 263.386 48.48C262.906 47.6133 262.666 46.6133 262.666 45.48C262.666 44.36 262.913 43.3667 263.406 42.5C263.9 41.6333 264.573 40.9667 265.426 40.5C266.28 40.0333 267.233 39.8 268.286 39.8C269.34 39.8 270.293 40.0333 271.146 40.5C272 40.9667 272.673 41.6333 273.166 42.5C273.66 43.3667 273.906 44.36 273.906 45.48C273.906 46.6 273.653 47.5933 273.146 48.46C272.64 49.3267 271.946 50 271.066 50.48C270.2 50.9467 269.24 51.18 268.186 51.18ZM268.186 49.2C268.773 49.2 269.32 49.06 269.826 48.78C270.346 48.5 270.766 48.08 271.086 47.52C271.406 46.96 271.566 46.28 271.566 45.48C271.566 44.68 271.413 44.0067 271.106 43.46C270.8 42.9 270.393 42.48 269.886 42.2C269.38 41.92 268.833 41.78 268.246 41.78C267.66 41.78 267.113 41.92 266.606 42.2C266.113 42.48 265.72 42.9 265.426 43.46C265.133 44.0067 264.986 44.68 264.986 45.48C264.986 46.6667 265.286 47.5867 265.886 48.24C266.5 48.88 267.266 49.2 268.186 49.2ZM281.72 39.8C282.587 39.8 283.36 39.98 284.04 40.34C284.733 40.7 285.273 41.2333 285.66 41.94C286.047 42.6467 286.24 43.5 286.24 44.5V51H283.98V44.84C283.98 43.8533 283.733 43.1 283.24 42.58C282.747 42.0467 282.073 41.78 281.22 41.78C280.367 41.78 279.687 42.0467 279.18 42.58C278.687 43.1 278.44 43.8533 278.44 44.84V51H276.16V39.98H278.44V41.24C278.813 40.7867 279.287 40.4333 279.86 40.18C280.447 39.9267 281.067 39.8 281.72 39.8ZM288.388 45.44C288.388 44.3333 288.615 43.3533 289.068 42.5C289.535 41.6467 290.162 40.9867 290.948 40.52C291.748 40.04 292.628 39.8 293.588 39.8C294.455 39.8 295.208 39.9733 295.848 40.32C296.502 40.6533 297.022 41.0733 297.408 41.58V39.98H299.708V51H297.408V49.36C297.022 49.88 296.495 50.3133 295.828 50.66C295.162 51.0067 294.402 51.18 293.548 51.18C292.602 51.18 291.735 50.94 290.948 50.46C290.162 49.9667 289.535 49.2867 289.068 48.42C288.615 47.54 288.388 46.5467 288.388 45.44ZM297.408 45.48C297.408 44.72 297.248 44.06 296.928 43.5C296.622 42.94 296.215 42.5133 295.708 42.22C295.202 41.9267 294.655 41.78 294.068 41.78C293.482 41.78 292.935 41.9267 292.428 42.22C291.922 42.5 291.508 42.92 291.188 43.48C290.882 44.0267 290.728 44.68 290.728 45.44C290.728 46.2 290.882 46.8667 291.188 47.44C291.508 48.0133 291.922 48.4533 292.428 48.76C292.948 49.0533 293.495 49.2 294.068 49.2C294.655 49.2 295.202 49.0533 295.708 48.76C296.215 48.4667 296.622 48.04 296.928 47.48C297.248 46.9067 297.408 46.24 297.408 45.48ZM301.943 45.44C301.943 44.3333 302.17 43.3533 302.623 42.5C303.09 41.6467 303.716 40.9867 304.503 40.52C305.303 40.04 306.19 39.8 307.163 39.8C307.883 39.8 308.59 39.96 309.283 40.28C309.99 40.5867 310.55 41 310.963 41.52V36.2H313.263V51H310.963V49.34C310.59 49.8733 310.07 50.3133 309.403 50.66C308.75 51.0067 307.996 51.18 307.143 51.18C306.183 51.18 305.303 50.94 304.503 50.46C303.716 49.9667 303.09 49.2867 302.623 48.42C302.17 47.54 301.943 46.5467 301.943 45.44ZM310.963 45.48C310.963 44.72 310.803 44.06 310.483 43.5C310.176 42.94 309.77 42.5133 309.263 42.22C308.756 41.9267 308.21 41.78 307.623 41.78C307.036 41.78 306.49 41.9267 305.983 42.22C305.476 42.5 305.063 42.92 304.743 43.48C304.436 44.0267 304.283 44.68 304.283 45.44C304.283 46.2 304.436 46.8667 304.743 47.44C305.063 48.0133 305.476 48.4533 305.983 48.76C306.503 49.0533 307.05 49.2 307.623 49.2C308.21 49.2 308.756 49.0533 309.263 48.76C309.77 48.4667 310.176 48.04 310.483 47.48C310.803 46.9067 310.963 46.24 310.963 45.48ZM321.038 51.18C319.998 51.18 319.058 50.9467 318.218 50.48C317.378 50 316.718 49.3333 316.238 48.48C315.758 47.6133 315.518 46.6133 315.518 45.48C315.518 44.36 315.764 43.3667 316.258 42.5C316.751 41.6333 317.424 40.9667 318.278 40.5C319.131 40.0333 320.084 39.8 321.138 39.8C322.191 39.8 323.144 40.0333 323.998 40.5C324.851 40.9667 325.524 41.6333 326.018 42.5C326.511 43.3667 326.758 44.36 326.758 45.48C326.758 46.6 326.504 47.5933 325.998 48.46C325.491 49.3267 324.798 50 323.918 50.48C323.051 50.9467 322.091 51.18 321.038 51.18ZM321.038 49.2C321.624 49.2 322.171 49.06 322.678 48.78C323.198 48.5 323.618 48.08 323.938 47.52C324.258 46.96 324.418 46.28 324.418 45.48C324.418 44.68 324.264 44.0067 323.958 43.46C323.651 42.9 323.244 42.48 322.738 42.2C322.231 41.92 321.684 41.78 321.098 41.78C320.511 41.78 319.964 41.92 319.458 42.2C318.964 42.48 318.571 42.9 318.278 43.46C317.984 44.0067 317.838 44.68 317.838 45.48C317.838 46.6667 318.138 47.5867 318.738 48.24C319.351 48.88 320.118 49.2 321.038 49.2ZM333.447 45.44C333.447 44.3333 333.674 43.3533 334.127 42.5C334.594 41.6467 335.22 40.9867 336.007 40.52C336.807 40.04 337.687 39.8 338.647 39.8C339.514 39.8 340.267 39.9733 340.907 40.32C341.56 40.6533 342.08 41.0733 342.467 41.58V39.98H344.767V51H342.467V49.36C342.08 49.88 341.554 50.3133 340.887 50.66C340.22 51.0067 339.46 51.18 338.607 51.18C337.66 51.18 336.794 50.94 336.007 50.46C335.22 49.9667 334.594 49.2867 334.127 48.42C333.674 47.54 333.447 46.5467 333.447 45.44ZM342.467 45.48C342.467 44.72 342.307 44.06 341.987 43.5C341.68 42.94 341.274 42.5133 340.767 42.22C340.26 41.9267 339.714 41.78 339.127 41.78C338.54 41.78 337.994 41.9267 337.487 42.22C336.98 42.5 336.567 42.92 336.247 43.48C335.94 44.0267 335.787 44.68 335.787 45.44C335.787 46.2 335.94 46.8667 336.247 47.44C336.567 48.0133 336.98 48.4533 337.487 48.76C338.007 49.0533 338.554 49.2 339.127 49.2C339.714 49.2 340.26 49.0533 340.767 48.76C341.274 48.4667 341.68 48.04 341.987 47.48C342.307 46.9067 342.467 46.24 342.467 45.48ZM352.542 51.18C351.502 51.18 350.562 50.9467 349.722 50.48C348.882 50 348.222 49.3333 347.742 48.48C347.262 47.6133 347.022 46.6133 347.022 45.48C347.022 44.36 347.268 43.3667 347.762 42.5C348.255 41.6333 348.928 40.9667 349.782 40.5C350.635 40.0333 351.588 39.8 352.642 39.8C353.695 39.8 354.648 40.0333 355.502 40.5C356.355 40.9667 357.028 41.6333 357.522 42.5C358.015 43.3667 358.262 44.36 358.262 45.48C358.262 46.6 358.008 47.5933 357.502 48.46C356.995 49.3267 356.302 50 355.422 50.48C354.555 50.9467 353.595 51.18 352.542 51.18ZM352.542 49.2C353.128 49.2 353.675 49.06 354.182 48.78C354.702 48.5 355.122 48.08 355.442 47.52C355.762 46.96 355.922 46.28 355.922 45.48C355.922 44.68 355.768 44.0067 355.462 43.46C355.155 42.9 354.748 42.48 354.242 42.2C353.735 41.92 353.188 41.78 352.602 41.78C352.015 41.78 351.468 41.92 350.962 42.2C350.468 42.48 350.075 42.9 349.782 43.46C349.488 44.0067 349.342 44.68 349.342 45.48C349.342 46.6667 349.642 47.5867 350.242 48.24C350.855 48.88 351.622 49.2 352.542 49.2ZM128.74 69.48C128.74 68.3467 128.967 67.3533 129.42 66.5C129.887 65.6333 130.527 64.9667 131.34 64.5C132.153 64.0333 133.087 63.8 134.14 63.8C135.473 63.8 136.573 64.12 137.44 64.76C138.32 65.3867 138.913 66.2867 139.22 67.46H136.76C136.56 66.9133 136.24 66.4867 135.8 66.18C135.36 65.8733 134.807 65.72 134.14 65.72C133.207 65.72 132.46 66.0533 131.9 66.72C131.353 67.3733 131.08 68.2933 131.08 69.48C131.08 70.6667 131.353 71.5933 131.9 72.26C132.46 72.9267 133.207 73.26 134.14 73.26C135.46 73.26 136.333 72.68 136.76 71.52H139.22C138.9 72.64 138.3 73.5333 137.42 74.2C136.54 74.8533 135.447 75.18 134.14 75.18C133.087 75.18 132.153 74.9467 131.34 74.48C130.527 74 129.887 73.3333 129.42 72.48C128.967 71.6133 128.74 70.6133 128.74 69.48ZM140.732 69.44C140.732 68.3333 140.959 67.3533 141.412 66.5C141.879 65.6467 142.506 64.9867 143.292 64.52C144.092 64.04 144.972 63.8 145.932 63.8C146.799 63.8 147.552 63.9733 148.192 64.32C148.846 64.6533 149.366 65.0733 149.752 65.58V63.98H152.052V75H149.752V73.36C149.366 73.88 148.839 74.3133 148.172 74.66C147.506 75.0067 146.746 75.18 145.892 75.18C144.946 75.18 144.079 74.94 143.292 74.46C142.506 73.9667 141.879 73.2867 141.412 72.42C140.959 71.54 140.732 70.5467 140.732 69.44ZM149.752 69.48C149.752 68.72 149.592 68.06 149.272 67.5C148.966 66.94 148.559 66.5133 148.052 66.22C147.546 65.9267 146.999 65.78 146.412 65.78C145.826 65.78 145.279 65.9267 144.772 66.22C144.266 66.5 143.852 66.92 143.532 67.48C143.226 68.0267 143.072 68.68 143.072 69.44C143.072 70.2 143.226 70.8667 143.532 71.44C143.852 72.0133 144.266 72.4533 144.772 72.76C145.292 73.0533 145.839 73.2 146.412 73.2C146.999 73.2 147.546 73.0533 148.052 72.76C148.559 72.4667 148.966 72.04 149.272 71.48C149.592 70.9067 149.752 70.24 149.752 69.48ZM157.327 65.58C157.66 65.02 158.1 64.5867 158.647 64.28C159.207 63.96 159.867 63.8 160.627 63.8V66.16H160.047C159.154 66.16 158.474 66.3867 158.007 66.84C157.554 67.2933 157.327 68.08 157.327 69.2V75H155.047V63.98H157.327V65.58ZM165.003 65.58C165.336 65.02 165.776 64.5867 166.323 64.28C166.883 63.96 167.543 63.8 168.303 63.8V66.16H167.723C166.829 66.16 166.149 66.3867 165.683 66.84C165.229 67.2933 165.003 68.08 165.003 69.2V75H162.723V63.98H165.003V65.58ZM171.558 62.52C171.145 62.52 170.798 62.38 170.518 62.1C170.238 61.82 170.098 61.4733 170.098 61.06C170.098 60.6467 170.238 60.3 170.518 60.02C170.798 59.74 171.145 59.6 171.558 59.6C171.958 59.6 172.298 59.74 172.578 60.02C172.858 60.3 172.998 60.6467 172.998 61.06C172.998 61.4733 172.858 61.82 172.578 62.1C172.298 62.38 171.958 62.52 171.558 62.52ZM172.678 63.98V75H170.398V63.98H172.678ZM181.232 63.8C182.099 63.8 182.872 63.98 183.552 64.34C184.245 64.7 184.785 65.2333 185.172 65.94C185.559 66.6467 185.752 67.5 185.752 68.5V75H183.492V68.84C183.492 67.8533 183.245 67.1 182.752 66.58C182.259 66.0467 181.585 65.78 180.732 65.78C179.879 65.78 179.199 66.0467 178.692 66.58C178.199 67.1 177.952 67.8533 177.952 68.84V75H175.672V63.98H177.952V65.24C178.325 64.7867 178.799 64.4333 179.372 64.18C179.959 63.9267 180.579 63.8 181.232 63.8ZM194.36 63.8C195.2 63.8 195.947 63.98 196.6 64.34C197.267 64.7 197.787 65.2333 198.16 65.94C198.547 66.6467 198.74 67.5 198.74 68.5V75H196.48V68.84C196.48 67.8533 196.233 67.1 195.74 66.58C195.247 66.0467 194.573 65.78 193.72 65.78C192.867 65.78 192.187 66.0467 191.68 66.58C191.187 67.1 190.94 67.8533 190.94 68.84V75H188.66V60.2H190.94V65.26C191.327 64.7933 191.813 64.4333 192.4 64.18C193 63.9267 193.653 63.8 194.36 63.8ZM206.428 75.18C205.388 75.18 204.448 74.9467 203.608 74.48C202.768 74 202.108 73.3333 201.628 72.48C201.148 71.6133 200.908 70.6133 200.908 69.48C200.908 68.36 201.155 67.3667 201.648 66.5C202.142 65.6333 202.815 64.9667 203.668 64.5C204.522 64.0333 205.475 63.8 206.528 63.8C207.582 63.8 208.535 64.0333 209.388 64.5C210.242 64.9667 210.915 65.6333 211.408 66.5C211.902 67.3667 212.148 68.36 212.148 69.48C212.148 70.6 211.895 71.5933 211.388 72.46C210.882 73.3267 210.188 74 209.308 74.48C208.442 74.9467 207.482 75.18 206.428 75.18ZM206.428 73.2C207.015 73.2 207.562 73.06 208.068 72.78C208.588 72.5 209.008 72.08 209.328 71.52C209.648 70.96 209.808 70.28 209.808 69.48C209.808 68.68 209.655 68.0067 209.348 67.46C209.042 66.9 208.635 66.48 208.128 66.2C207.622 65.92 207.075 65.78 206.488 65.78C205.902 65.78 205.355 65.92 204.848 66.2C204.355 66.48 203.962 66.9 203.668 67.46C203.375 68.0067 203.228 68.68 203.228 69.48C203.228 70.6667 203.528 71.5867 204.128 72.24C204.742 72.88 205.508 73.2 206.428 73.2Z" fill="black"/>
</g>
<defs>
<filter id="filter0_d_176_6742" x="0" y="0" width="418" height="128" filterUnits="userSpaceOnUse" color-interpolation-filters="sRGB">
<feFlood flood-opacity="0" result="BackgroundImageFix"/>
<feColorMatrix in="SourceAlpha" type="matrix" values="0 0 0 0 0 0 0 0 0 0 0 0 0 0 0 0 0 0 127 0" result="hardAlpha"/>
<feOffset dy="8"/>
<feGaussianBlur stdDeviation="4"/>
<feComposite in2="hardAlpha" operator="out"/>
<feColorMatrix type="matrix" values="0 0 0 0 0 0 0 0 0 0 0 0 0 0 0 0 0 0 0.1 0"/>
<feBlend mode="normal" in2="BackgroundImageFix" result="effect1_dropShadow_176_6742"/>
<feBlend mode="normal" in="SourceGraphic" in2="effect1_dropShadow_176_6742" result="shape"/>
</filter>
</defs>
</svg>
