<svg width="14" height="14" viewBox="0 0 14 14" fill="none" xmlns="http://www.w3.org/2000/svg">
<path d="M5.66634 5.66665C5.66634 5.53479 5.62724 5.4059 5.55399 5.29627C5.48074 5.18663 5.37662 5.10119 5.2548 5.05073C5.13298 5.00027 4.99894 4.98707 4.86962 5.01279C4.7403 5.03851 4.62151 5.10201 4.52827 5.19524C4.43504 5.28848 4.37154 5.40727 4.34582 5.53659C4.3201 5.66591 4.3333 5.79995 4.38376 5.92177C4.43422 6.04359 4.51966 6.14771 4.6293 6.22096C4.73893 6.29421 4.86782 6.33331 4.99968 6.33331C5.17649 6.33331 5.34606 6.26308 5.47108 6.13805C5.59611 6.01303 5.66634 5.84346 5.66634 5.66665ZM8.66634 8.37331C8.59065 8.32896 8.50695 8.29998 8.42004 8.28804C8.33312 8.27609 8.24471 8.28142 8.15986 8.30372C8.07501 8.32602 7.99539 8.36484 7.92558 8.41797C7.85576 8.47109 7.79712 8.53748 7.75301 8.61331C7.67733 8.74637 7.56775 8.85702 7.43543 8.93398C7.3031 9.01095 7.15276 9.05149 6.99968 9.05149C6.8466 9.05149 6.69625 9.01095 6.56393 8.93398C6.4316 8.85702 6.32203 8.74637 6.24634 8.61331C6.20224 8.53748 6.14359 8.47109 6.07378 8.41797C6.00396 8.36484 5.92435 8.32602 5.8395 8.30372C5.75465 8.28142 5.66623 8.27609 5.57932 8.28804C5.4924 8.29998 5.4087 8.32896 5.33301 8.37331C5.18052 8.46126 5.06901 8.60595 5.0228 8.7758C4.97658 8.94566 4.99943 9.1269 5.08634 9.27998C5.27971 9.61652 5.55842 9.8961 5.89435 10.0905C6.23028 10.2849 6.61154 10.3873 6.99968 10.3873C7.38781 10.3873 7.76908 10.2849 8.10501 10.0905C8.44094 9.8961 8.71965 9.61652 8.91301 9.27998C8.99993 9.1269 9.02277 8.94566 8.97656 8.7758C8.93035 8.60595 8.81883 8.46126 8.66634 8.37331ZM8.99968 4.99998C8.86782 4.99998 8.73893 5.03908 8.6293 5.11233C8.51966 5.18559 8.43422 5.28971 8.38376 5.41152C8.3333 5.53334 8.3201 5.66739 8.34582 5.79671C8.37154 5.92603 8.43504 6.04482 8.52827 6.13805C8.62151 6.23129 8.7403 6.29478 8.86962 6.3205C8.99894 6.34623 9.13298 6.33302 9.2548 6.28257C9.37662 6.23211 9.48074 6.14666 9.55399 6.03703C9.62724 5.92739 9.66634 5.7985 9.66634 5.66665C9.66634 5.48984 9.59611 5.32027 9.47108 5.19524C9.34606 5.07022 9.17649 4.99998 8.99968 4.99998ZM6.99968 0.333313C5.68114 0.333313 4.3922 0.724306 3.29588 1.45685C2.19955 2.18939 1.34506 3.23058 0.840481 4.44876C0.335896 5.66693 0.203874 7.00738 0.461109 8.30058C0.718344 9.59379 1.35328 10.7817 2.28563 11.714C3.21798 12.6464 4.40587 13.2813 5.69908 13.5385C6.99228 13.7958 8.33273 13.6638 9.5509 13.1592C10.7691 12.6546 11.8103 11.8001 12.5428 10.7038C13.2753 9.60745 13.6663 8.31852 13.6663 6.99998C13.6663 6.1245 13.4939 5.25759 13.1589 4.44876C12.8238 3.63992 12.3328 2.90499 11.7137 2.28593C11.0947 1.66688 10.3597 1.17581 9.5509 0.840783C8.74206 0.505751 7.87516 0.333313 6.99968 0.333313ZM6.99968 12.3333C5.75789 12.3387 4.55315 11.9105 3.59322 11.1227C2.63329 10.335 1.97836 9.23689 1.74136 8.01791C1.50435 6.79893 1.70015 5.53546 2.29496 4.44538C2.88978 3.35531 3.84634 2.50696 4.99968 2.04665C4.99282 2.14208 4.99282 2.23788 4.99968 2.33331C4.99968 2.86375 5.21039 3.37245 5.58546 3.74753C5.96054 4.1226 6.46924 4.33331 6.99968 4.33331C7.17649 4.33331 7.34606 4.26308 7.47108 4.13805C7.59611 4.01303 7.66634 3.84346 7.66634 3.66665C7.66634 3.48984 7.59611 3.32027 7.47108 3.19524C7.34606 3.07022 7.17649 2.99998 6.99968 2.99998C6.82287 2.99998 6.6533 2.92974 6.52827 2.80472C6.40325 2.67969 6.33301 2.51012 6.33301 2.33331C6.33301 2.1565 6.40325 1.98693 6.52827 1.86191C6.6533 1.73688 6.82287 1.66665 6.99968 1.66665C8.41417 1.66665 9.77072 2.22855 10.7709 3.22874C11.7711 4.22894 12.333 5.58549 12.333 6.99998C12.333 8.41447 11.7711 9.77102 10.7709 10.7712C9.77072 11.7714 8.41417 12.3333 6.99968 12.3333Z" fill="black"/>
</svg>
