<svg width="12" height="14" viewBox="0 0 12 14" fill="none" xmlns="http://www.w3.org/2000/svg">
<path d="M10.667 3.66665H8.66699V2.99998C8.66699 2.29274 8.38604 1.61446 7.88594 1.11436C7.38585 0.614265 6.70757 0.333313 6.00033 0.333313C5.29308 0.333313 4.6148 0.614265 4.11471 1.11436C3.61461 1.61446 3.33366 2.29274 3.33366 2.99998V3.66665H1.33366C1.15685 3.66665 0.987279 3.73688 0.862254 3.86191C0.73723 3.98693 0.666992 4.1565 0.666992 4.33331V11.6666C0.666992 12.1971 0.877706 12.7058 1.25278 13.0809C1.62785 13.4559 2.13656 13.6666 2.66699 13.6666H9.33366C9.86409 13.6666 10.3728 13.4559 10.7479 13.0809C11.1229 12.7058 11.3337 12.1971 11.3337 11.6666V4.33331C11.3337 4.1565 11.2634 3.98693 11.1384 3.86191C11.0134 3.73688 10.8438 3.66665 10.667 3.66665ZM4.66699 2.99998C4.66699 2.64636 4.80747 2.30722 5.05752 2.05717C5.30756 1.80712 5.6467 1.66665 6.00033 1.66665C6.35395 1.66665 6.69309 1.80712 6.94313 2.05717C7.19318 2.30722 7.33366 2.64636 7.33366 2.99998V3.66665H4.66699V2.99998ZM10.0003 11.6666C10.0003 11.8435 9.93009 12.013 9.80506 12.1381C9.68004 12.2631 9.51047 12.3333 9.33366 12.3333H2.66699C2.49018 12.3333 2.32061 12.2631 2.19559 12.1381C2.07056 12.013 2.00033 11.8435 2.00033 11.6666V4.99998H3.33366V5.66665C3.33366 5.84346 3.4039 6.01303 3.52892 6.13805C3.65395 6.26308 3.82351 6.33331 4.00033 6.33331C4.17714 6.33331 4.34671 6.26308 4.47173 6.13805C4.59675 6.01303 4.66699 5.84346 4.66699 5.66665V4.99998H7.33366V5.66665C7.33366 5.84346 7.4039 6.01303 7.52892 6.13805C7.65394 6.26308 7.82351 6.33331 8.00033 6.33331C8.17714 6.33331 8.34671 6.26308 8.47173 6.13805C8.59675 6.01303 8.66699 5.84346 8.66699 5.66665V4.99998H10.0003V11.6666Z" fill="black"/>
</svg>
