<svg width="22" height="22" viewBox="0 0 22 22" fill="none" xmlns="http://www.w3.org/2000/svg">
<path d="M5.04232 19.25C3.77667 19.25 2.75065 18.224 2.75065 16.9584C2.75065 15.6927 3.77667 14.6667 5.04232 14.6667C6.30797 14.6667 7.33398 15.6927 7.33398 16.9584C7.33398 18.224 6.30797 19.25 5.04232 19.25Z" stroke="black" stroke-width="1.5" stroke-linecap="round" stroke-linejoin="round"/>
<path d="M16.9583 19.25C15.6927 19.25 14.6667 18.224 14.6667 16.9584C14.6667 15.6927 15.6927 14.6667 16.9583 14.6667C18.224 14.6667 19.25 15.6927 19.25 16.9584C19.25 18.224 18.224 19.25 16.9583 19.25Z" stroke="black" stroke-width="1.5" stroke-linecap="round" stroke-linejoin="round"/>
<path d="M7.33398 7.33331H3.66732L0.917319 10.0833V14.6666H7.33398V7.33331Z" stroke="black" stroke-width="1.5" stroke-linecap="round" stroke-linejoin="round"/>
<path d="M7.33398 2.75H21.084V14.6667H7.33398V2.75Z" stroke="black" stroke-width="1.5" stroke-linecap="round" stroke-linejoin="round"/>
</svg>
