<svg width="14" height="14" viewBox="0 0 14 14" fill="none" xmlns="http://www.w3.org/2000/svg">
<path d="M10.2267 6.75333C10.4937 6.75664 10.7587 6.70643 11.006 6.60567C11.2533 6.50491 11.478 6.35564 11.6667 6.16667L13.5533 4.28C13.6775 4.15509 13.7472 3.98613 13.7472 3.81C13.7472 3.63388 13.6775 3.46491 13.5533 3.34C13.4913 3.27752 13.4176 3.22792 13.3364 3.19407C13.2551 3.16023 13.168 3.1428 13.08 3.1428C12.992 3.1428 12.9048 3.16023 12.8236 3.19407C12.7424 3.22792 12.6686 3.27752 12.6067 3.34L10.7 5.22C10.638 5.28249 10.5643 5.33208 10.483 5.36593C10.4018 5.39978 10.3147 5.4172 10.2267 5.4172C10.1386 5.4172 10.0515 5.39978 9.97027 5.36593C9.88903 5.33208 9.8153 5.28249 9.75332 5.22L12.1133 2.86667C12.1755 2.80451 12.2248 2.73072 12.2584 2.6495C12.2921 2.56829 12.3094 2.48124 12.3094 2.39334C12.3094 2.30543 12.2921 2.21838 12.2584 2.13717C12.2248 2.05595 12.1755 1.98216 12.1133 1.92C12.0512 1.85784 11.9774 1.80854 11.8962 1.7749C11.8149 1.74126 11.7279 1.72394 11.64 1.72394C11.5521 1.72394 11.465 1.74126 11.3838 1.7749C11.3026 1.80854 11.2288 1.85784 11.1667 1.92L8.81332 4.28C8.68916 4.15509 8.61946 3.98613 8.61946 3.81C8.61946 3.63388 8.68916 3.46491 8.81332 3.34L10.7 1.45334C10.7621 1.39118 10.8115 1.31738 10.8451 1.23617C10.8787 1.15495 10.8961 1.06791 10.8961 0.980002C10.8961 0.892096 10.8787 0.805051 10.8451 0.723836C10.8115 0.642622 10.7621 0.568828 10.7 0.506669C10.6378 0.44451 10.564 0.395203 10.4828 0.361563C10.4016 0.327922 10.3146 0.310608 10.2267 0.310608C10.1388 0.310608 10.0517 0.327922 9.97049 0.361563C9.88928 0.395203 9.81548 0.44451 9.75332 0.506669L7.86666 2.39334C7.49212 2.76834 7.28175 3.27667 7.28175 3.80667C7.28175 4.33667 7.49212 4.845 7.86666 5.22L6.99999 6.08L1.48666 0.546669L1.41999 0.506669C1.38591 0.476936 1.34775 0.45224 1.30666 0.433336L1.18666 0.386669L1.10666 0.333336H1.05999H0.926658C0.886911 0.32698 0.846406 0.32698 0.806658 0.333336C0.766299 0.348025 0.728162 0.368216 0.693325 0.393336L0.586658 0.460002H0.539992L0.499992 0.526669C0.471776 0.561868 0.447205 0.599841 0.426658 0.640002C0.407134 0.680654 0.391508 0.723067 0.379992 0.766669C0.379992 0.766669 0.379992 0.813336 0.379992 0.840002C0.218215 1.96761 0.321358 3.1174 0.681243 4.19821C1.04113 5.27902 1.64786 6.26113 2.45332 7.06667L4.21333 8.82L0.606658 12.42C0.544173 12.482 0.494577 12.5557 0.460731 12.6369C0.426885 12.7182 0.409459 12.8053 0.409459 12.8933C0.409459 12.9813 0.426885 13.0685 0.460731 13.1497C0.494577 13.231 0.544173 13.3047 0.606658 13.3667C0.668952 13.4285 0.742829 13.4773 0.824054 13.5105C0.905279 13.5437 0.992254 13.5605 1.07999 13.56C1.16773 13.5605 1.2547 13.5437 1.33593 13.5105C1.41715 13.4773 1.49103 13.4285 1.55332 13.3667L5.59999 9.38L7.48666 7.49333L8.81999 6.16C9.19198 6.536 9.69776 6.74934 10.2267 6.75333ZM5.12666 7.96667L3.37332 6.20667C2.4123 5.23249 1.81056 3.96084 1.66666 2.6L6.07332 7L5.12666 7.96667ZM9.28666 8.34667C9.16112 8.22025 8.99051 8.14888 8.81235 8.14825C8.63419 8.14762 8.46308 8.2178 8.33666 8.34334C8.21024 8.46887 8.13886 8.63948 8.13824 8.81764C8.13761 8.9958 8.20779 9.16691 8.33332 9.29333L12.5333 13.4933C12.6607 13.6092 12.8279 13.6713 13 13.6667C13.0877 13.6672 13.1747 13.6504 13.2559 13.6172C13.3372 13.584 13.411 13.5351 13.4733 13.4733C13.5358 13.4114 13.5854 13.3376 13.6193 13.2564C13.6531 13.1751 13.6705 13.088 13.6705 13C13.6705 12.912 13.6531 12.8249 13.6193 12.7436C13.5854 12.6624 13.5358 12.5886 13.4733 12.5267L9.28666 8.34667Z" fill="black"/>
</svg>
