<svg width="133" height="54" viewBox="0 0 133 54" fill="none" xmlns="http://www.w3.org/2000/svg">
<g clip-path="url(#clip0_174_9607)">
<path d="M107.165 52.3124V53.9843H106.063V52.2806L104.213 49.2224H105.384L106.662 51.3388L107.939 49.2224H108.999L107.165 52.3124ZM99.0769 50.9631C99.0846 50.8469 99.0652 50.7305 99.0201 50.6231C98.9751 50.5156 98.9056 50.4201 98.8172 50.3441C98.5967 50.188 98.3288 50.1132 98.0592 50.1325H97.1581V51.7938H98.0592C98.3294 51.8116 98.5974 51.7349 98.8172 51.5769C98.9045 51.5012 98.9733 51.4065 99.0184 51.3001C99.0634 51.1937 99.0834 51.0785 99.0769 50.9631ZM99.0769 54.0002L98.1546 52.6721H97.1369V53.9843H96.0344V49.2224H98.1016C98.48 49.2136 98.856 49.2857 99.2041 49.434C99.4972 49.5574 99.7464 49.7657 99.9197 50.0319C100.094 50.307 100.182 50.6273 100.174 50.9526C100.183 51.2762 100.095 51.5952 99.9197 51.8679C99.742 52.1319 99.489 52.3365 99.1935 52.4552L100.254 53.9896L99.0769 54.0002ZM91.2799 53.1166V53.9843H87.5695V49.2224H91.1792V50.106H88.6667V51.1642H90.8876V52.0213H88.6667V53.1272L91.2799 53.1166ZM83.3291 49.233L81.2619 53.9949H80.1753L78.1134 49.233H79.3061L80.7584 52.6404L82.2319 49.233H83.3291ZM72.6486 49.233H73.7564V53.9949H72.6486V49.233ZM64.6555 49.233H65.7633V53.1007H68.1538V53.9843H64.6555V49.233ZM59.885 53.1166V53.9843H56.1747V49.2224H59.7843V50.106H57.2772V51.1642H59.4928V52.0213H57.2772V53.1272L59.885 53.1166ZM48.7911 53.1166C49.2098 53.1375 49.6204 52.9952 49.936 52.7198C50.2102 52.426 50.3627 52.0393 50.3627 51.6378C50.3627 51.2362 50.2102 50.8495 49.936 50.5557C49.6204 50.2803 49.2098 50.138 48.7911 50.1589H47.784V53.1166H48.7911ZM46.6709 49.2542H48.8441C49.3185 49.2458 49.7884 49.3473 50.2169 49.5505C50.5999 49.7347 50.9219 50.0249 51.1445 50.3864C51.36 50.7684 51.4732 51.1994 51.4732 51.6378C51.4732 52.0761 51.36 52.5071 51.1445 52.8891C50.9219 53.2506 50.5999 53.5408 50.2169 53.7251C49.7884 53.9282 49.3185 54.0297 48.8441 54.0213H46.6709V49.2542Z" fill="#FF6600"/>
<path d="M10.4737 17.9262H20.5446C20.4704 18.6986 20.428 19.5135 20.428 20.2912C20.4213 22.2066 20.6528 24.1153 21.1171 25.9738H10.4737C9.95239 25.9789 9.43535 25.88 8.95292 25.6828C8.47048 25.4856 8.0324 25.1942 7.66441 24.8256C7.28544 24.4603 6.98623 24.0208 6.78556 23.5346C6.58489 23.0483 6.48709 22.526 6.4983 22.0002C6.48375 21.4653 6.57714 20.933 6.77292 20.4349C6.9687 19.9368 7.26286 19.4831 7.6379 19.1008C8.00677 18.7168 8.4519 18.414 8.94479 18.2118C9.43767 18.0095 9.96744 17.9122 10.5002 17.9262H10.4737ZM15.912 8.40234H23.8627C22.6281 10.3244 21.7167 12.4352 21.1648 14.651H15.8855C15.4785 14.6595 15.074 14.5861 14.6961 14.4352C14.3182 14.2843 13.9746 14.059 13.6858 13.7727C13.3908 13.4903 13.1579 13.1497 13.0018 12.7726C12.8458 12.3955 12.77 11.9901 12.7794 11.5822C12.7682 11.1665 12.8408 10.7528 12.9929 10.3656C13.145 9.97843 13.3734 9.62568 13.6646 9.32827C13.9505 9.03003 14.2958 8.79495 14.6784 8.63819C15.0609 8.48144 15.4721 8.4065 15.8855 8.41822L15.912 8.40234ZM4.00707 29.233H22.2567C23.4251 31.8544 25.092 34.2245 27.1649 36.2119C27.5413 36.5822 27.9335 36.9367 28.3257 37.2701H4.00707C3.48034 37.2804 2.95699 37.1839 2.46867 36.9866C1.98034 36.7893 1.53719 36.4951 1.166 36.1219C0.787039 35.7566 0.487828 35.3171 0.287154 34.8309C0.0864811 34.3446 -0.0113197 33.8223 -0.000108073 33.2965C-0.0140531 32.7617 0.0796187 32.2295 0.275364 31.7315C0.47111 31.2335 0.764951 30.7797 1.1395 30.397C1.5101 30.0146 1.95654 29.7136 2.4503 29.5132C2.94406 29.3127 3.47427 29.2173 4.00707 29.233ZM37.75 16.196H53.4395C53.4582 17.2583 53.2564 18.3131 52.8468 19.2938C52.4372 20.2745 51.8287 21.1599 51.0596 21.8944C50.3125 22.651 49.4197 23.2487 48.4349 23.6516C47.4501 24.0544 46.3938 24.254 45.3297 24.2383H37.75C37.2246 24.2483 36.7026 24.1522 36.2153 23.9558C35.728 23.7594 35.2854 23.4668 34.9143 23.0955C34.5353 22.7302 34.2361 22.2906 34.0354 21.8044C33.8347 21.3182 33.7369 20.7958 33.7481 20.2701C33.7338 19.7344 33.8272 19.2013 34.023 18.7024C34.2187 18.2034 34.5128 17.7488 34.8877 17.3653C35.2571 16.9823 35.7024 16.6805 36.1953 16.4792C36.6881 16.2778 37.2177 16.1814 37.75 16.196Z" fill="#FF6600"/>
<path d="M99.8084 0.608398C99.8259 1.66789 99.6257 2.71973 99.22 3.69893C98.8143 4.67813 98.2118 5.5639 97.4497 6.30152C96.7101 7.06106 95.8225 7.66135 94.8416 8.06538C93.8607 8.46941 92.8073 8.66862 91.7463 8.65073H83.6366V40.4814C81.3827 40.4676 79.225 39.568 77.6307 37.9776C76.0365 36.3872 75.134 34.2339 75.1187 31.9841V8.65073H69.585V8.35972V7.91528V7.80417V7.46554V7.34914V7.25919V7.16395V7.04755V6.95231V6.88353V6.85178V6.76184V6.68247V6.59253V6.5502V6.46554V6.36501V6.32268V6.22215V6.12163V5.99993V5.9629V5.85178V5.73538L69.5532 5.61369L69.5161 5.4867L69.479 5.35443L69.4419 5.23274L69.4048 5.11633L69.3677 4.99993L69.3305 4.89411V4.86766L69.2987 4.76713V4.73538L69.2616 4.64014V4.60311L69.2298 4.51316V4.47083L69.198 4.39147L69.1715 4.32268L69.1344 4.23803L69.1079 4.16395V4.1375L69.0761 4.07401L69.0496 4.00522V3.97877L69.0231 3.92057V3.89411L68.986 3.82004L68.9489 3.74596L68.9118 3.67189V3.64014V3.59782L68.8005 3.38089L68.7475 3.29094V3.26448L68.6945 3.16395L68.6362 3.05813L68.5726 2.94702L68.5037 2.83591L68.4348 2.71951L68.3659 2.6084L68.297 2.49729L68.2333 2.40205L68.1644 2.30681L68.1114 2.23274L68.0849 2.1957V2.16924L68.0213 2.08459V2.05284L67.963 1.97348L67.9365 1.94173L67.8676 1.85707L67.8146 1.78829L67.751 1.70893L67.7139 1.65602L67.0301 1.23274L66.9612 1.15337V1.12163L66.8976 1.04755V1.01581L66.8234 0.93644L66.7439 0.846493L66.6591 0.756546L66.5796 0.67189H99.9303L99.8084 0.608398Z" fill="#FF6600"/>
<path d="M125.24 32.7352V20.5977C125.277 18.987 124.969 17.387 124.338 15.9044C123.706 14.4218 122.765 13.0907 121.577 11.9998C119.231 9.66798 116.055 8.35884 112.744 8.35884C109.433 8.35884 106.257 9.66798 103.911 11.9998C102.728 13.0936 101.791 14.4257 101.163 15.9078C100.534 17.39 100.228 18.9885 100.264 20.5977C100.226 22.1929 100.529 23.7778 101.154 25.2467C101.778 26.7157 102.709 28.0348 103.884 29.1162C105.032 30.2891 106.409 31.2141 107.93 31.8339C109.451 32.4537 111.083 32.7551 112.726 32.7193L125.24 32.7352ZM133 20.5977V40.4813H112.726C110.079 40.5169 107.453 40.0198 105.003 39.0199C102.553 38.0199 100.33 36.5375 98.4672 34.6612C96.5502 32.8583 95.03 30.6768 94.0034 28.2557C92.9768 25.8345 92.4663 23.2265 92.5042 20.5977C92.466 17.9586 92.9762 15.3403 94.0026 12.9079C95.0289 10.4756 96.5491 8.28192 98.4672 6.46538C102.265 2.71344 107.393 0.608887 112.736 0.608887C118.08 0.608887 123.207 2.71344 127.005 6.46538C128.932 8.27716 130.459 10.4692 131.491 12.9022C132.524 15.3351 133.037 17.9558 133 20.5977Z" fill="#FF6600"/>
<path d="M43.2044 40.4814C40.5224 40.5206 37.8602 40.0187 35.3773 39.0059C32.8944 37.9931 30.642 36.4901 28.7552 34.5872C26.8128 32.7533 25.2736 30.5364 24.2352 28.0771C23.1968 25.6178 22.6819 22.9699 22.7233 20.3015C22.6824 17.6229 23.1971 14.9648 24.2352 12.4945C25.2733 10.0241 26.8122 7.79489 28.7552 5.94698C30.6361 4.03365 32.8866 2.52141 35.3703 1.50189C37.854 0.482364 40.5192 -0.0232213 43.2044 0.0157668H55.2153C55.2333 1.07724 55.0311 2.13095 54.6216 3.11069C54.212 4.09043 53.6039 4.97503 52.8354 5.70889C52.0903 6.46889 51.1981 7.06957 50.213 7.47435C49.2279 7.87913 48.1707 8.07954 47.1055 8.06339H43.2044C41.6137 8.0401 40.036 8.35232 38.5746 8.97962C37.1132 9.60692 35.8009 10.5352 34.7236 11.7036C33.5998 12.8354 32.7124 14.1787 32.1128 15.6555C31.5132 17.1324 31.2133 18.7134 31.2305 20.3068C31.2105 21.8935 31.5092 23.4681 32.1092 24.9376C32.7092 26.4071 33.5981 27.7416 34.7236 28.8623C35.8086 30.0177 37.1234 30.934 38.5839 31.5527C40.0443 32.1713 41.6181 32.4786 43.2044 32.4549H47.1055C48.1702 32.439 49.2269 32.639 50.2118 33.0428C51.1968 33.4466 52.0893 34.0458 52.8354 34.8041C53.6031 35.5386 54.2107 36.4233 54.6202 37.4029C55.0297 38.3825 55.2323 39.4359 55.2153 40.4972L43.2044 40.4814Z" fill="#FF6600"/>
<path d="M66.4999 8.48157C66.514 7.36318 66.2984 6.25377 65.8663 5.22181C65.4341 4.18986 64.7947 3.25726 63.9875 2.48157C63.206 1.68303 62.2692 1.05239 61.2346 0.628395C60.2001 0.204397 59.0896 -0.00401533 57.9714 0.0159598V31.9842C57.984 34.2367 58.8871 36.3932 60.4842 37.9845C62.0813 39.5758 64.2434 40.4732 66.4999 40.4816V8.48157Z" fill="#FF6600"/>
</g>
<defs>
<clipPath id="clip0_174_9607">
<rect width="133" height="54" fill="white"/>
</clipPath>
</defs>
</svg>
