<svg width="158" height="136" viewBox="0 0 158 136" fill="none" xmlns="http://www.w3.org/2000/svg">
<path d="M44.3522 15.4607C44.5791 15.7181 43.7185 16.041 43.5153 15.8104C43.0553 15.2886 42.6091 15.5319 42.2545 16.0307C42.0879 16.265 41.182 16.3483 41.4175 16.017C42.0459 15.1326 43.5091 14.5042 44.3522 15.4607ZM40.3811 13.4979C40.5934 13.5118 40.8407 13.4453 41.0179 13.3272C41.3849 13.0827 41.7616 12.8107 42.1877 12.6802C42.2709 12.6547 42.637 12.5559 42.5969 12.4067C42.5581 12.2613 42.1886 12.3492 42.1056 12.3744C41.453 12.5739 40.888 12.9052 40.323 13.2812C40.1778 13.3785 40.2074 13.4867 40.3811 13.4979ZM43.1246 20.1532C43.4174 20.431 43.8118 20.5168 44.1953 20.5942C44.3985 20.6352 44.6717 20.5485 44.8321 20.4235C44.9834 20.3061 44.9328 20.1898 44.7603 20.155C44.4697 20.0963 44.1869 20.0285 43.9662 19.8191C43.7608 19.6248 42.9214 19.9602 43.1246 20.1532ZM100.15 27.2551C105.411 29.0862 111.305 33.7205 111.463 39.7654C111.474 40.198 112.379 40.0265 112.37 39.6763C112.205 33.373 106.184 28.6169 100.685 26.7028C100.348 26.5853 99.6253 27.0723 100.15 27.2551ZM101.916 24.6834C106.104 25.9225 110.159 27.7237 113.344 30.7787C116.446 33.7534 117.981 37.7923 118.303 42.017C118.32 42.2324 119.226 42.0593 119.204 41.7759C118.884 37.585 117.373 33.7671 114.449 30.7168C111.309 27.4406 106.923 25.5675 102.648 24.3021C102.418 24.234 101.61 24.5923 101.916 24.6834ZM156.141 50.2878C154.979 52.3585 153.589 54.2937 152.14 56.172C150.662 58.0895 149.117 59.9533 147.586 61.8285C146.71 62.9016 145.525 64.0562 144.979 65.3521C144.942 65.4407 144.818 65.5106 144.675 65.556C145.189 65.7198 145.708 65.8724 146.232 66.0122C146.469 65.9668 146.702 65.9905 146.676 66.1154C147.016 66.1154 147.356 66.1154 147.695 66.1154C147.892 66.1154 148.006 66.1844 148.055 66.2779C148.238 66.2639 148.393 66.3062 148.385 66.4395C147.944 73.4898 145.497 80.5088 143.179 87.1258C141.716 91.303 140.161 95.4587 138.44 99.5377C138.337 99.7795 137.597 99.883 137.542 99.7229C133.706 99.7239 129.869 99.7422 126.033 99.7686C126.039 99.8096 126.043 99.8522 126.052 99.8914C126.058 99.9168 126.053 99.9417 126.044 99.966C128.158 104.666 130.311 109.358 132.677 113.937C133.578 115.681 134.492 117.432 135.541 119.093C135.755 119.434 136.28 120.438 136.835 121.083C137.292 121.072 137.757 121.092 138.225 121.145C138.47 121.173 138.47 121.314 138.372 121.432C138.408 121.439 138.444 121.445 138.481 121.452L138.855 121.506C138.855 121.506 138.901 121.529 138.976 121.569C142.312 122.497 144.21 125.932 143.764 129.389C143.261 133.297 140.026 135.841 136.076 135.218C132.128 134.596 128.971 131.354 129.52 127.223C120.889 127.223 112.259 127.223 103.629 127.223C103.294 130.049 101.921 132.7 99.3488 134.19C95.6449 136.337 90.0988 135.357 87.0861 132.424C84.1352 129.55 83.2219 124.877 85.02 121.13C86.4207 118.211 88.9669 116.563 91.8742 115.983C91.7984 115.513 91.6586 115.016 91.6004 114.658C91.312 112.883 90.9975 111.111 90.6799 109.341C90.1227 106.237 89.5484 103.134 88.9657 100.033C88.9374 100.033 88.9091 100.033 88.8808 100.033C88.3183 100.033 88.4212 99.4718 88.8438 99.3823C88.1803 95.8596 87.5059 92.3388 86.8288 88.8184C86.5817 88.7366 86.5786 88.4877 86.7343 88.3261C85.9794 84.4025 85.223 80.4792 84.4771 76.5541C84.4696 76.5131 84.4616 76.4721 84.4541 76.431C82.9307 68.4095 81.4548 60.3803 80.1389 52.3255C79.4263 52.1148 78.8026 51.6922 78.4371 51.0445C78.0247 51.7922 77.5446 52.7233 76.8105 53.113C75.3632 53.881 73.4644 54.1427 71.8486 54.2346C69.083 54.3922 66.2742 54.4491 63.5738 53.7576C61.5367 53.2361 59.5297 52.5418 57.565 51.7245C58.0709 53.9323 59.5785 55.8392 60.3731 57.9543C61.4444 60.806 61.9581 63.7553 62.5101 66.7382C63.3666 71.3657 64.0291 76.1893 63.3582 80.8814C63.4408 80.9274 63.4912 81.0057 63.4775 81.1229C61.6595 96.9141 57.62 112.129 53.1985 127.355C53.1093 127.662 52.5101 127.791 52.329 127.619C50.4599 127.271 48.6217 126.778 46.8636 126.08C46.798 127.123 47.0861 128.053 47.6232 128.844C47.672 128.865 47.6987 128.898 47.6934 128.945C48.2568 129.73 49.0673 130.371 50.0242 130.831C52.4362 131.989 54.8298 131.947 57.4183 132.254C58.3351 132.363 59.7612 132.589 60.2622 133.507C60.3961 133.752 60.389 134.929 60.6016 134.98C60.9329 135.06 60.7383 135.273 60.4769 135.398C60.4443 135.414 60.4107 135.428 60.3769 135.44C60.2585 135.484 60.1382 135.506 60.0543 135.486C60.0042 135.474 59.9607 135.459 59.9203 135.442C59.9008 135.434 59.8824 135.425 59.865 135.416C59.8467 135.425 59.8284 135.434 59.8094 135.443C59.6916 135.496 59.5642 135.535 59.4843 135.536C56.9223 135.567 54.3761 135.848 51.8115 135.848C49.4033 135.848 46.9901 135.801 44.5828 135.864C42.8139 135.91 41.035 135.968 39.2673 135.868C38.5736 135.829 36.4951 135.925 36.1508 135.076C36.1216 135.004 36.2347 134.917 36.3901 134.851C36.2717 134.813 36.2092 134.729 36.2854 134.586C38.2426 130.912 39.8391 126.691 40.8143 122.643C40.819 122.624 40.8268 122.606 40.8361 122.589C39.624 121.697 38.4331 120.775 37.1847 119.933C37.09 119.868 37.0517 119.771 37.1136 119.666C41.5285 112.142 44.6844 103.758 47.6418 95.5796C49.4291 90.6376 51.2214 85.5946 52.6581 80.4752C52.5325 80.2079 52.3917 79.9503 52.2183 79.7147C51.7139 79.0291 51.0952 78.6481 50.4034 78.4564C47.2468 85.5673 41.2507 91.7008 35.4568 96.7171C29.3634 101.993 22.0812 107.25 13.9584 108.644C13.336 108.751 13.6666 108.235 14.0862 108.163C22.1223 106.784 29.4619 101.309 35.3959 96.0029C40.9051 91.0761 46.6423 85.2049 49.6227 78.3178C47.153 78.0915 44.0247 79.5419 41.7206 78.5254C41.0017 78.2081 40.3391 77.8174 39.7095 77.3826C36.896 81.745 32.2592 85.1005 27.8145 87.5973C23.3934 90.0807 17.9681 92.1163 12.835 91.1004C12.3297 93.7448 12.1488 96.48 12.2196 99.1673C12.3262 99.2148 12.307 99.2962 12.2246 99.3792C12.3098 102.166 12.5627 105.142 13.8509 107.661C14.0082 107.969 13.1274 108.249 12.9506 107.902C11.6671 105.392 11.3836 102.398 11.3212 99.6101C8.06795 99.2515 6.23001 102.661 5.6616 105.447C5.22029 107.609 5.68522 110.247 4.48499 112.2C4.01851 112.959 3.26239 113.592 2.32042 113.562C2.04911 113.554 1.27465 113.441 1.20877 113.058C1.19696 113.045 1.18857 113.03 1.18857 113.01C1.1752 108.302 0.783935 103.599 0.630721 98.8941C0.604616 98.0973 -0.183517 92.4448 1.70135 92.7979C2.70516 92.1828 3.95946 92.2714 5.10717 92.3003C7.31649 92.3559 9.51058 92.3062 11.7168 92.4498C11.8019 91.8755 11.8983 91.303 12.0155 90.7346C12.0736 90.4533 12.5024 90.3586 12.7368 90.4167C18.0691 91.7456 23.8434 89.3442 28.3499 86.6233C32.3866 84.1865 36.5716 81.0641 39.0817 76.9852C39.0895 76.9724 39.1007 76.9606 39.111 76.9491C37.1353 75.4496 35.464 73.5445 33.4526 72.0609C33.25 71.9114 33.4116 71.733 33.6391 71.6342C33.824 71.5537 34.0521 71.5254 34.1649 71.6087C36.8255 73.5716 38.9357 76.5299 42.0111 77.8867C44.1735 78.8408 46.1961 78.1096 48.3998 77.8622C49.4639 77.7425 50.7409 77.6347 51.7192 78.1813C52.2724 78.4906 52.6618 78.8983 52.9645 79.3583C53.7604 76.4059 54.4317 73.4286 54.9028 70.4302C54.9581 70.0784 55.8721 69.9342 55.8087 70.3379C55.2755 73.7304 54.4475 77.083 53.4944 80.3956C53.7495 81.0299 53.9431 81.7012 54.1952 82.338C54.4839 83.0683 54.8522 83.7514 55.493 84.272C55.7506 84.4811 56.0216 84.6604 56.3013 84.7981C57.0767 85.1801 57.9192 85.2335 58.7298 84.6465C59.2254 84.2875 59.6739 83.8754 60.1547 83.4985C60.8073 82.9869 61.4677 82.5795 62.2257 82.2836C62.4936 80.9426 62.6449 79.5876 62.7018 78.2264C62.7773 76.4223 62.6909 74.608 62.5023 72.8008C62.2633 70.5113 61.8643 68.234 61.423 66.0072C60.8539 63.1359 60.2762 60.4129 59.2568 57.6594C58.4706 55.5353 56.9067 53.729 56.5633 51.4439C56.5559 51.3941 56.5642 51.3475 56.5848 51.304C53.4419 49.9204 50.4167 48.2313 47.57 46.4189C43.5824 43.8805 38.775 40.736 36.6732 36.3189C36.6443 36.258 36.6602 36.1983 36.703 36.1439C36.6903 36.1352 36.6804 36.1244 36.6732 36.1116C36.4566 35.7256 36.2344 35.3387 36.0625 34.93C35.6402 33.9269 35.3558 32.7425 35.5936 31.7576C35.6532 31.5109 35.7483 31.2778 35.8798 31.0621C36.1346 30.6457 36.5303 30.2963 37.1223 30.063C39.1339 29.2698 41.42 29.9045 43.217 30.958C46.7754 33.0439 48.9778 36.6654 52.0163 39.3717C52.9313 40.1865 53.8894 40.9194 54.8829 41.5891C54.7145 38.311 53.5876 35.951 50.8105 33.8927C49.2861 32.7627 47.5582 31.4254 45.7128 30.3287C45.4266 30.3716 45.2752 30.241 45.3153 30.0974C42.7399 28.6312 39.9504 27.6892 37.1695 28.4631C37.1173 28.4777 37.0651 28.4951 37.0129 28.5106C37.0011 28.5206 36.9886 28.5299 36.975 28.5395C36.9538 28.5544 36.9327 28.5693 36.9072 28.5836C36.1757 28.9908 35.6333 29.4616 35.2424 29.9778C34.9624 30.3476 34.7591 30.7408 34.6252 31.1522C34.0067 33.0505 34.8176 35.3269 35.8863 37.3874C37.8806 41.2326 40.3836 44.8063 42.0748 48.8094C42.9832 50.9603 43.7279 53.2274 43.9411 55.5651C44.0402 56.655 44.079 57.7564 43.9603 58.8472C43.8752 59.6285 43.8742 60.7653 43.4171 61.4431C42.6501 62.58 41.2976 63.3032 40.2475 64.146C37.6733 66.2114 35.5706 68.6684 33.8246 71.4679C33.7836 71.5338 33.7124 71.5857 33.6285 71.6239C33.2975 71.775 32.7565 71.7072 32.9656 71.3716C34.591 68.7651 36.5141 66.3659 38.8741 64.3859C39.6943 63.6978 40.5539 63.0657 41.4008 62.4125C41.829 62.0821 42.4978 61.6744 42.6687 61.124C43.1859 59.4591 43.2918 57.7228 43.1197 55.9865C41.0452 58.3636 38.4897 59.9766 35.6865 60.953C35.1762 61.1411 34.6351 61.3064 34.0711 61.4379C30.5649 62.3379 26.7631 62.3422 23.0891 61.6818C18.6105 60.8766 13.5491 59.4097 9.79557 56.7056C7.00105 54.6924 4.82032 51.635 4.67519 48.0896C4.66649 47.8743 4.66431 47.6561 4.66649 47.4361C4.37342 45.5108 4.92412 43.7515 5.80828 42.2862C6.34873 41.1705 7.09211 40.1741 8.06982 39.4239C8.47942 39.1097 8.90394 38.8555 9.33717 38.6286C9.76076 38.3542 10.1365 38.1631 10.4196 38.0686C11.3454 37.76 12.3604 37.2469 13.1482 36.8087C14.2201 35.9733 14.4485 34.7691 14.5968 33.2733C14.8435 30.7867 14.7559 27.7467 16.4055 25.6875C17.846 23.8893 20.1426 22.7395 22.4417 22.6531C23.6308 22.6083 25.1828 22.8451 26.2746 22.2904C27.38 21.7288 27.7887 20.6209 27.94 19.4723C27.7725 15.1583 27.472 10.3954 31.5289 7.73417C33.4051 6.50348 36.0759 6.17126 37.4514 4.27862C38.481 2.86179 39.5659 1.20627 41.4878 0.990593C44.9906 0.597769 48.1353 4.59344 46.3912 7.87743C46.137 8.35603 45.806 8.77589 45.425 9.14945C45.503 9.197 45.5556 9.27314 45.5571 9.38409C45.5758 10.9498 45.7339 12.5186 46.1292 14.0377C46.5485 15.6484 47.3456 15.9869 48.9489 15.9291C49.3399 15.9148 49.4058 16.1768 49.2709 16.3735C49.3458 16.4061 49.3781 16.467 49.3247 16.5652C48.7979 17.5367 48.0816 17.8674 48.107 19.1354C48.1232 19.9291 48.1913 20.7206 48.1903 21.5147C48.1894 22.5735 47.621 23.4797 46.7089 24.0143C45.9005 24.4876 45.0484 24.6498 44.1309 24.7747C42.5562 24.9892 41.9676 25.9231 41.6357 27.2666C47.5554 25.0663 53.5432 23.0366 59.6226 21.322C70.0231 18.3886 81.2814 15.6742 92.1853 16.4005C94.2685 16.5394 96.6981 16.7122 98.5687 17.7499C98.9447 17.9588 99.4417 18.2733 99.5473 18.7279C99.7556 19.6205 98.4817 19.8172 97.3405 19.816C97.6168 19.9642 97.8856 20.1243 98.138 20.3086C99.0066 20.9432 100.33 22.3383 99.8305 23.5372C99.281 24.8559 97.1873 24.0584 95.6424 23.37C96.3423 24.2775 96.9365 25.2695 97.361 26.1583C98.0509 27.6016 97.7128 28.6707 96.2848 28.653C96.0704 28.7533 95.7714 28.8068 95.6486 28.7024C93.7687 27.1037 91.6545 24.5184 89.0897 24.1084C85.4029 23.5192 86.4785 27.6171 85.6397 29.7127C85.5431 29.9545 85.139 30.0406 84.9112 30.0042C82.3054 29.5856 81.4678 27.2799 80.0979 25.3711C80.0799 25.3736 80.0622 25.3758 80.0454 25.3758C68.6743 25.4094 57.5528 27.4934 46.5364 30.1397C47.6987 30.8259 48.833 31.6025 49.95 32.3733C51.5738 33.4939 53.4158 34.674 54.4917 36.3814C55.5816 38.1109 55.7892 40.0799 55.8072 42.0854C55.8075 42.1134 55.7948 42.1398 55.7743 42.1643C57.6116 43.2993 59.5744 44.213 61.6734 44.9104C63.7264 45.5925 65.8556 46.1613 68.0149 46.3713C69.1048 46.4773 70.2257 46.5463 71.3166 46.4061C72.2038 46.2921 72.8888 45.7731 73.6226 45.3032C76.0634 43.74 78.5387 41.9027 81.5126 41.6115C83.2085 41.4455 84.7695 42.2209 85.6521 43.6775C86.0502 44.3351 86.3446 45.0434 86.5562 45.7818C86.6426 46.0839 86.9257 46.6616 86.7063 46.7788C86.7075 46.7865 86.7091 46.7949 86.71 46.8027C86.9189 46.8036 86.8685 46.877 86.734 46.9553C86.8813 48.4389 85.9051 49.7231 84.336 49.5264C84.6378 51.5063 82.8495 52.5434 81.1079 52.4803C81.8103 56.7181 82.6071 60.9409 83.3906 65.1641C83.45 65.4845 83.5106 65.8049 83.5699 66.1253C83.6035 66.1188 83.6386 66.1144 83.6762 66.1144C84.4758 66.1144 85.2755 66.1144 86.0757 66.1144C86.5413 64.7532 87.2433 63.4772 88.1819 62.3848C90.949 59.1648 95.0249 58.0165 99.143 58.7913C99.2182 58.8053 99.2633 58.8276 99.2885 58.8544C103.169 59.3734 106.599 62.3966 108.399 66.1144C111.82 66.1144 115.241 66.1144 118.662 66.1144C118.763 66.0905 118.869 66.0902 118.962 66.1144C120.072 66.1144 121.183 66.1144 122.295 66.1144C122.625 64.6976 122.955 63.2811 123.296 61.867C123.739 60.0288 124.005 57.8885 124.804 56.1584C124.845 56.0686 124.972 55.9986 125.119 55.9539C125.302 55.8821 125.518 55.8451 125.616 55.8964C127.679 56.9822 129.702 58.1588 131.729 59.3271C133.395 55.5623 136.153 51.9119 138.879 48.9166C140.417 47.2263 143.761 43.6331 146.237 46.0118C147.823 47.5358 146.905 50.1504 145.78 52.2823C147.658 49.8962 149.648 47.5834 151.898 45.6012C152.798 44.8081 153.938 43.7944 155.206 43.7198C156.282 43.6564 157.413 44.4995 157.558 45.5854C157.773 47.2204 156.915 48.9085 156.141 50.2878ZM2.69429 92.8656C2.50906 92.9228 2.34342 92.9961 2.21103 93.095C2.10288 93.1755 1.85053 93.2137 1.65163 93.2013C1.63516 93.2445 1.6106 93.3256 1.58792 93.4716C1.55622 93.6783 1.53167 93.8853 1.51799 94.0938C1.47293 94.7772 1.46671 95.4628 1.47293 96.1471C1.49002 97.945 1.5643 99.7419 1.64666 101.538C1.81665 105.249 2.07242 108.965 2.08672 112.682C2.11531 112.714 2.12805 112.755 2.11438 112.81C2.07491 112.966 2.59391 113.041 2.67315 113.03C3.34381 112.933 3.76678 112.05 3.94735 111.483C4.64939 109.281 4.28423 106.929 4.9726 104.715C5.36915 103.44 5.96771 102.224 6.76952 101.246C6.75522 101.242 6.74124 101.238 6.72912 101.232C5.20693 100.415 3.56043 99.015 3.84137 97.0704C4.1018 95.2654 5.27312 93.9226 6.64428 92.8084C6.60388 92.8087 6.56316 92.8078 6.52276 92.8084C6.21882 92.8118 5.81792 92.7833 5.38003 92.755C4.47815 92.6972 3.4184 92.6422 2.69429 92.8656ZM1.32904 93.2587C1.48598 93.2659 1.57704 93.2305 1.62428 93.1994C1.57549 93.195 1.53136 93.1873 1.49375 93.1761C1.4375 93.1969 1.38125 93.2137 1.32873 93.2249C1.2588 93.2401 1.19603 93.2454 1.1519 93.2367C1.21965 93.2504 1.27714 93.2563 1.32904 93.2587ZM11.3122 99.0579C11.2867 97.0328 11.3721 94.996 11.6375 92.9853C10.2167 92.8777 8.79269 92.8168 7.36777 92.81C6.97526 93.1335 6.56969 93.5015 6.19551 93.9067C5.58421 94.5693 5.06148 95.3316 4.83834 96.1667C4.75226 96.489 4.70968 96.8215 4.72491 97.1634C4.72833 97.2392 4.73672 97.3122 4.74418 97.3859C4.83897 98.3306 5.25914 99.0827 5.86764 99.6987C6.25829 100.094 6.72539 100.434 7.23351 100.732C8.29264 99.6661 9.65075 99.0007 11.3122 99.0579ZM52.1472 132.246C50.2828 131.808 48.3783 131.001 47.1787 129.698C46.1752 131.007 44.9461 132.021 43.2229 132.25C41.6578 132.459 40.2061 131.614 39.0236 130.647C38.4406 132.023 37.8088 133.366 37.1316 134.637C37.1033 134.689 37.0502 134.735 36.984 134.772C37.0157 134.786 37.039 134.806 37.0505 134.834C37.1966 135.195 37.7494 135.374 38.4101 135.463C38.825 135.518 39.2806 135.538 39.7089 135.541C40.3245 135.546 40.8802 135.519 41.1556 135.522C42.6666 135.54 44.1741 135.472 45.6845 135.462C47.9193 135.447 50.1548 135.461 52.3899 135.461C54.8083 135.461 57.2097 135.2 59.6248 135.157C59.521 134.895 59.6024 134.534 59.5316 134.206C59.5157 134.133 59.4936 134.064 59.4691 133.998C59.1045 133.017 57.8086 132.752 56.5419 132.673C55.6742 132.619 54.8211 132.651 54.2925 132.6C54.1318 132.585 53.9671 132.565 53.8008 132.544C53.2669 132.476 52.7094 132.377 52.1472 132.246ZM46.0118 125.72C45.1282 125.329 44.2652 124.888 43.4357 124.374C42.7971 123.979 42.1793 123.556 41.5698 123.12C40.9995 125.363 40.244 127.653 39.3462 129.869C39.3568 129.875 39.368 129.88 39.3767 129.888C40.2636 130.679 41.3352 131.553 42.5562 131.731C44.4955 132.012 45.7495 130.604 46.7399 129.152C46.0997 128.23 45.7902 127.098 46.0118 125.72ZM62.3547 82.889C62.2987 82.88 62.2509 82.8623 62.2148 82.8346C60.3794 83.7496 58.781 86.2395 56.5158 85.6052C55.3435 85.277 54.3425 84.5846 53.789 83.4751C53.5102 82.916 53.3213 82.2908 53.1177 81.6729C52.6767 83.1557 52.2171 84.6309 51.7487 86.0969C49.8151 92.1533 47.6595 98.1439 45.2796 104.039C43.2583 109.047 41.1506 114.086 38.4941 118.797C38.0785 119.534 38.0381 119.539 38.7505 120.051C39.3074 120.451 39.8574 120.86 40.4047 121.273C41.425 122.043 42.444 122.822 43.5221 123.51C46.2679 125.262 49.2401 126.344 52.4138 126.982C56.6264 112.45 60.4695 97.922 62.3547 82.889ZM41.4639 27.9319C41.4325 27.9695 41.3883 28.0037 41.3336 28.0333C42.9261 28.3207 44.4486 28.9703 45.9232 29.7898C57.0537 27.0991 68.2899 24.9674 79.7728 24.8605C79.8334 24.6389 80.4858 24.4425 80.6365 24.633C81.9809 26.3321 82.7224 28.7076 84.8848 29.4025C85.273 28.0096 85.0051 26.4809 85.6086 25.1809C86.0717 24.1837 87.3984 23.7476 88.392 23.5888C91.3394 23.1174 94.0792 26.2127 96.1328 28.0528C96.1679 28.0494 96.2018 28.0488 96.2313 28.0541C97.8952 28.3509 95.6266 24.992 95.2611 24.4991C94.4941 23.4633 93.6155 22.2118 92.5017 21.5178C92.103 21.2692 92.9206 20.8648 93.2081 21.0445C93.7377 21.3745 94.2504 21.8133 94.7328 22.3143C94.7881 22.3081 94.8372 22.3081 94.8739 22.3193C95.7767 22.5859 96.6102 23.0344 97.4906 23.3613C97.6998 23.439 98.9012 23.9813 98.9973 23.5062C99.0924 23.0353 98.8409 22.3929 98.5957 21.9976C97.4658 20.1762 95.1772 19.5695 93.2472 18.9943C92.9057 18.8923 93.7184 18.5085 93.9707 18.5841C94.5836 18.7668 95.2173 18.9508 95.8379 19.1692C95.9305 19.1282 96.0321 19.1065 96.1269 19.1198C96.613 19.1888 98.6678 19.2535 98.6604 19.0393C98.6231 17.9625 95.9044 17.5305 95.203 17.3959C91.7658 16.7371 88.166 16.8207 84.6934 17.0762C69.8711 18.1654 55.304 22.7594 41.4639 27.9319ZM36.5843 28.0202C36.5797 28.0264 36.5759 28.0326 36.5716 28.0385C36.579 28.0354 36.5868 28.0311 36.5943 28.0283C36.5893 28.0258 36.5871 28.023 36.5843 28.0202ZM40.6198 27.9304C41.1232 25.3376 42.3256 24.6433 44.7603 24.2536C47.1585 23.8695 47.2791 22.1972 47.2226 20.1513C47.203 19.4461 47.1486 18.7833 47.3699 18.1067C47.5635 17.5147 48.1704 17.1327 48.4744 16.5948C47.3606 16.6122 46.2551 16.4875 45.6146 15.4455C44.704 13.9643 44.6661 11.5707 44.6471 9.79276C42.9596 10.9793 40.6397 11.4703 38.6345 11.479C38.6299 13.7225 38.5021 15.8666 36.5849 17.2477C37.1257 17.3599 37.6282 17.73 37.9356 18.3901C37.9987 18.5259 37.1316 18.8386 37.0353 18.6313C36.3718 17.207 34.9015 17.5992 35.1196 19.1832C35.2265 19.9571 35.9516 21.7282 37.1574 20.8039C37.2385 20.7418 37.9934 20.435 38.0136 20.643C38.1553 22.107 38.0195 23.6103 37.8697 25.0687C37.7855 25.8873 37.8414 27.0705 37.4626 27.8288C37.407 27.9397 37.1711 28.0093 36.9557 28.0367C37.0365 28.073 37.0968 28.1315 37.1241 28.2014C38.3297 27.8769 39.4926 27.8076 40.6198 27.9304ZM78.122 50.0746C78.1186 50.0469 78.1117 50.0214 78.1089 49.9931C78.0937 49.8362 78.2112 49.7079 78.3663 49.6295C79.2367 48.0334 80.4597 45.8095 82.343 45.9008C83.0407 45.9347 83.835 46.5687 83.8515 47.3111C83.8624 47.8022 83.8549 48.8523 84.5498 48.9623C86.2628 49.2333 85.9667 47.3264 85.6711 46.4711C85.659 46.436 85.6605 46.4018 85.6695 46.3689C85.5496 45.945 85.4797 45.4645 85.401 45.2606C84.8134 43.7384 83.7371 42.1976 81.9828 41.9813C78.4999 41.5521 75.4558 44.8675 72.5628 46.3403C70.5751 47.3522 67.5033 46.8344 65.4276 46.431C62.2596 45.8157 59.0679 44.7979 56.2193 43.2617C52.7849 41.4095 50.0078 38.738 47.4317 35.8425C46.4568 34.7467 45.4263 33.5915 44.277 32.6014C43.3699 31.8201 42.389 31.1414 41.3001 30.6805C40.7251 30.4368 40.1207 30.2531 39.4814 30.1469C35.3148 29.4526 36.2869 33.5797 37.5726 35.8701C37.5872 35.8959 37.5477 35.9357 37.4791 35.9783C37.5195 36.0022 37.5521 36.0345 37.5726 36.0774C39.3987 39.9152 43.4127 42.8176 46.9783 45.1273C47.304 45.3383 47.6269 45.5459 47.943 45.7473C48.2565 45.9468 48.5723 46.1448 48.8896 46.3412C53.0904 48.9446 57.5991 51.2577 62.3158 52.7252C64.5429 53.4182 66.63 53.739 68.9599 53.752C71.1031 53.7638 73.3317 53.775 75.3921 53.0966C76.8164 52.6276 77.254 51.5781 77.9762 50.3313C78.0238 50.2502 78.0723 50.1638 78.122 50.0746ZM80.4233 51.6574C80.6679 51.5797 80.955 51.5794 80.978 51.7205C80.9846 51.7587 80.9911 51.7969 80.9976 51.8351C81.2357 51.8789 81.4837 51.8914 81.7354 51.869C83.2644 51.7326 83.7508 50.5308 83.2887 49.1646C83.2759 49.1264 83.2753 49.0903 83.2809 49.0552C82.8449 48.4427 83.1976 47.3444 82.6059 46.7999C81.438 45.7255 79.848 48.4514 79.0388 49.9456C79.1842 50.7434 79.7209 51.3509 80.4233 51.6574ZM132.398 59.714C134.214 60.7573 136.039 61.7819 137.9 62.7226C139.194 60.5636 140.976 58.6253 142.363 56.5369C143.441 54.9149 144.501 53.2439 145.265 51.447C145.766 50.2691 146.394 48.7429 146.033 47.4407C144.775 42.8993 139.794 48.7205 138.583 50.2098C136.257 53.0695 133.821 56.282 132.398 59.714ZM123.162 66.1154C130.262 66.1154 137.361 66.1154 144.461 66.1154C142.144 65.4158 139.931 64.4835 137.776 63.4222C137.624 63.4228 137.518 63.3883 137.556 63.3112C133.44 61.2654 129.521 58.7764 125.462 56.6012C124.611 58.7478 124.289 61.3036 123.77 63.5008C123.564 64.3716 123.365 65.2443 123.162 66.1154ZM130.125 93.9726C130.38 96.4694 132.657 97.9179 135.106 97.5319C139.356 96.8616 138.177 89.4744 134.201 90.0643C133.873 90.1127 133.806 89.99 133.877 89.8532C132.235 89.7367 130.874 90.7607 130.344 92.2099C130.427 92.2341 130.51 92.263 130.593 92.2857C130.75 92.3283 130.496 92.4737 130.236 92.5626C130.119 93.0073 130.075 93.4825 130.125 93.9726ZM135.299 89.1428C133.08 89.135 130.86 89.1235 128.641 89.1099C128.446 89.8579 128.251 90.6062 128.056 91.3543C128.57 91.5896 129.091 91.7984 129.618 91.9805C130.502 90.0124 132.548 89.0253 134.78 89.4004C134.918 89.4234 134.96 89.4732 134.946 89.5325C135.009 89.5341 135.073 89.535 135.135 89.54C135.188 89.407 135.244 89.2752 135.299 89.1428ZM125.959 96.1704C126.341 94.6492 126.734 93.131 127.13 91.6135C125.651 90.9248 124.227 90.0437 122.865 89.0691C121.49 89.0586 120.115 89.048 118.74 89.0368C118.658 92.4122 118.596 95.7882 118.591 99.1648C120.776 99.1452 122.962 99.1265 125.147 99.1107C125.291 98.1044 125.764 96.9446 125.959 96.1704ZM95.2387 99.3537C96.604 99.3478 97.9689 99.3388 99.3342 99.3301C99.3227 98.9702 99.1657 98.5398 99.0939 98.2374C98.8692 97.287 98.6181 96.3432 98.363 95.4006C97.7737 93.2221 97.1671 91.0482 96.5657 88.873C95.1691 88.8662 93.7721 88.8603 92.3755 88.856C92.6972 89.957 93.0058 91.0622 93.3082 92.1688C93.7892 93.9297 94.2557 95.694 94.7231 97.4583C94.8785 98.0447 95.0324 98.6315 95.194 99.2164C95.2061 99.263 95.2219 99.309 95.2387 99.3537ZM92.1804 88.1912C93.5807 88.1952 94.9814 88.2005 96.3818 88.2074C96.2724 87.8111 96.1617 87.4152 96.0533 87.0189C95.653 85.5558 95.2521 84.0896 94.8568 82.6214C94.2312 82.8116 93.6071 83.0052 92.9859 83.2082C92.328 83.4229 91.6663 83.6358 91.0233 83.8925C90.9105 83.9379 90.7968 83.9839 90.6846 84.0333C91.2371 84.7891 91.4736 85.9079 91.7453 86.7703C91.8941 87.2424 92.0386 87.7163 92.1804 88.1912ZM95.6061 81.8289C96.2028 81.6527 96.8007 81.4806 97.3996 81.3121C96.8196 81.2845 96.2463 81.2319 95.6872 81.1543C95.5961 81.1415 95.5063 81.1232 95.4156 81.1089C95.479 81.3491 95.5414 81.5893 95.6061 81.8289ZM88.0911 76.0708C89.7886 76.0792 91.4861 76.0938 93.1832 76.1134C92.4423 73.0547 91.7766 69.9796 91.2654 66.8793C91.2595 66.8448 91.2685 66.8115 91.2869 66.7801C89.7706 66.7801 88.2546 66.7801 86.7386 66.7801C86.6674 67.0434 86.6022 67.3103 86.5487 67.5835C85.9741 70.5141 86.4782 73.639 88.0911 76.0708ZM120.61 77.345C120.306 78.7137 120.001 80.0827 119.707 81.4535C119.464 82.5823 119.302 83.7847 118.926 84.8855C120.263 86.0605 121.696 87.2831 123.211 88.4066C124.793 88.4187 126.374 88.4308 127.956 88.4408C128.028 88.1626 128.101 87.8848 128.173 87.6063C129.036 84.2676 129.909 80.9212 130.712 77.5592C127.344 77.4983 123.977 77.4237 120.61 77.345ZM130.868 76.8963C131.654 73.5582 132.367 70.204 132.923 66.8246C132.926 66.8093 132.931 66.7944 132.94 66.7795C129.629 66.7795 126.318 66.7795 123.007 66.7795C122.284 69.896 121.571 73.015 120.875 76.1377C120.834 76.3188 120.796 76.5003 120.755 76.6818C124.126 76.7611 127.497 76.8354 130.868 76.8963ZM118.756 88.3718C119.821 88.3805 120.887 88.3892 121.952 88.3976C120.863 87.5715 119.818 86.7004 118.82 85.8367C118.797 86.6817 118.776 87.5268 118.756 88.3718ZM119.743 77.3248C119.511 77.3192 119.28 77.314 119.048 77.3087C119.018 78.5189 118.987 79.729 118.954 80.9389C119.214 79.7337 119.475 78.5285 119.743 77.3248ZM118.134 77.2866C114.777 77.2064 111.42 77.1241 108.062 77.0473C107.974 77.1719 107.891 77.2984 107.795 77.4199C107.53 77.7571 107.24 78.0617 106.937 78.3504C106.962 78.5213 106.986 78.6926 107.01 78.8632C108.596 78.554 110.188 78.324 111.778 78.2165C111.927 78.0785 112.553 77.8637 112.648 78.0393C114.388 81.2761 115.17 84.8422 116.118 88.35C116.693 88.355 117.267 88.3596 117.842 88.3643C117.863 87.5271 117.884 86.6895 117.906 85.8523C117.754 85.8498 117.64 85.8004 117.654 85.6832C117.664 85.6005 117.677 85.5151 117.692 85.4287C117.683 85.2537 117.678 85.0511 117.685 84.8454C117.682 84.8429 117.679 84.8401 117.677 84.8379C117.655 84.8186 117.662 84.7922 117.688 84.7624C117.705 84.4525 117.754 84.1474 117.871 83.9398C117.884 83.9165 117.918 83.8903 117.96 83.8642C118.021 81.6714 118.08 79.4791 118.134 77.2866ZM100.235 99.2956C103.43 98.8344 106.585 97.9593 109.724 97.0636C109.6 96.7068 109.495 96.3662 109.403 96.079C108.657 93.7519 108.145 91.3496 107.701 88.9451C104.312 88.9181 100.923 88.8957 97.5347 88.8777C98.1631 91.143 98.7974 93.407 99.4028 95.6785C99.6592 96.6416 100.381 98.225 100.235 99.2956ZM97.3504 88.2123C100.76 88.23 104.17 88.2521 107.58 88.2791C107.543 88.0731 107.505 87.8674 107.469 87.6616C106.994 84.9799 106.581 82.2889 106.188 79.5944C105.694 79.6995 105.2 79.8101 104.709 79.927C103.132 80.7375 101.338 81.1574 99.5275 81.2863C99.3658 81.3308 99.2042 81.3749 99.0433 81.419C97.9419 81.7205 96.8423 82.0303 95.7468 82.3539C96.1798 83.9603 96.6204 85.5633 97.0599 87.1638C97.1559 87.5134 97.2535 87.8627 97.3504 88.2123ZM106.823 77.557C106.962 77.3845 107.091 77.208 107.215 77.0284C107.059 77.0249 106.902 77.0218 106.746 77.0181C106.771 77.1977 106.797 77.3774 106.823 77.557ZM107.09 79.4105C107.441 81.8187 107.81 84.2241 108.229 86.6218C108.326 87.1759 108.424 87.7316 108.524 88.2869C110.732 88.3049 112.941 88.323 115.15 88.3419C114.278 85.0884 113.519 81.7957 111.991 78.7662C110.357 78.8598 108.719 79.0932 107.09 79.4105ZM110.599 96.8144C112.898 96.1577 115.191 95.5113 117.486 95.0289C116.543 93.0996 115.896 91.0681 115.33 89.0085C113.102 88.9896 110.873 88.9713 108.645 88.9532C109.041 91.0936 109.493 93.2302 110.136 95.304C110.261 95.7089 110.407 96.2531 110.599 96.8144ZM117.826 89.0291C117.318 89.0247 116.809 89.0207 116.301 89.0163C116.709 90.481 117.162 91.9302 117.737 93.3374C117.762 91.9013 117.791 90.4652 117.826 89.0291ZM107.624 76.3714C109.227 73.5047 109.036 69.9249 107.681 66.7798C106.867 66.7798 106.054 66.7798 105.241 66.7798C105.752 69.9638 106.197 73.1573 106.65 76.3499C106.975 76.3574 107.299 76.3639 107.624 76.3714ZM104.318 66.879C104.312 66.8445 104.322 66.8112 104.34 66.7798C100.29 66.7798 96.2407 66.7798 92.1912 66.7798C92.7133 69.9171 93.389 73.0299 94.1426 76.1259C98.0012 76.1743 101.86 76.2461 105.718 76.3297C105.269 73.1769 104.825 70.0234 104.318 66.879ZM88.5747 76.7372C89.2556 77.5943 90.0904 78.3439 91.0845 78.9372C92.0094 79.4888 93.0832 79.9422 94.234 80.2747C93.9294 79.1121 93.6308 77.948 93.3436 76.781C91.7537 76.762 90.1643 76.7462 88.5747 76.7372ZM95.2633 80.5349C96.4305 80.7888 97.6525 80.9184 98.8633 80.9038C100.816 80.3627 102.806 79.8073 104.815 79.3371C105.244 79.0702 105.647 78.7672 106.018 78.4247C105.95 77.9492 105.881 77.4734 105.813 76.9979C101.976 76.9143 98.1401 76.8425 94.3033 76.7931C94.6122 78.043 94.9345 79.2899 95.2633 80.5349ZM103.268 99.3024C105.807 99.2826 108.346 99.2602 110.885 99.2362C110.47 98.7968 110.16 98.1899 109.917 97.5801C107.71 98.2045 105.498 98.8211 103.268 99.3024ZM117.676 99.1732C117.678 97.9689 117.687 96.7646 117.701 95.5604C115.394 96.0418 113.094 96.6813 110.788 97.3337C111.096 98.1147 111.511 98.8515 112.095 99.2251C113.955 99.2074 115.816 99.1903 117.676 99.1732ZM127.293 90.9863C127.456 90.3592 127.619 89.7317 127.782 89.1046C126.569 89.0968 125.356 89.0872 124.142 89.0782C125.16 89.7858 126.211 90.4363 127.293 90.9863ZM135.574 88.4787C136.819 85.631 138.448 82.9027 139.816 80.1305C140.216 79.321 140.612 78.5083 141.005 77.6934C137.86 77.6701 134.715 77.6285 131.57 77.5735C130.808 80.7564 129.986 83.9258 129.168 87.0873C129.051 87.5401 128.932 87.9926 128.814 88.4454C131.067 88.4597 133.321 88.4709 135.574 88.4787ZM141.324 77.0315C142.923 73.6881 144.421 70.2894 145.602 66.7798C141.669 66.7798 137.736 66.7798 133.803 66.7798C133.241 70.1788 132.523 73.5529 131.73 76.9106C134.928 76.9662 138.126 77.0088 141.324 77.0315ZM122.137 66.7798C121.16 66.7798 120.185 66.7798 119.208 66.7798C119.202 70.0682 119.142 73.3556 119.064 76.6427C119.34 76.6492 119.615 76.6554 119.891 76.6623C120.166 75.4303 120.441 74.1984 120.719 72.9674C121.186 70.9035 121.659 68.8409 122.137 66.7798ZM108.699 66.7798C110.03 69.9286 110.183 73.4755 108.485 76.391C111.707 76.4646 114.928 76.5435 118.15 76.6206C118.229 73.341 118.287 70.0607 118.294 66.7798C115.095 66.7798 111.897 66.7798 108.699 66.7798ZM86.9381 66.1154C93.7498 66.1154 100.562 66.1154 107.373 66.1154C105.577 62.4737 102.22 59.5614 98.3477 59.3028C98.1945 59.2926 98.119 59.2534 98.0969 59.2012C93.0045 58.4712 88.5327 61.362 86.9381 66.1154ZM85.4253 76.0621C85.9552 76.0628 86.485 76.0656 87.0149 76.0674C86.5351 75.3169 86.1457 74.489 85.8787 73.5744C85.2404 71.3874 85.2494 68.9938 85.8688 66.7801C85.1425 66.7801 84.4165 66.7801 83.6905 66.7801C84.2658 69.8745 84.8444 72.9687 85.4253 76.0621ZM87.7027 88.1819C88.8724 88.1825 90.0416 88.1862 91.2113 88.189C91.0479 87.6473 90.8801 87.1069 90.7029 86.5696C90.4994 85.9502 90.3017 85.3171 90.0254 84.7251C89.9592 84.5834 89.6345 84.2387 89.663 84.0812C89.7724 83.477 91.519 83.1261 91.955 82.9785C92.8693 82.6687 93.7905 82.3772 94.7147 82.0962C94.6094 81.7025 94.5068 81.3084 94.4024 80.9143C91.6582 80.2903 89.1431 78.9039 87.4811 76.7334C86.8374 76.7306 86.1932 76.7281 85.5496 76.7269C86.2672 80.5454 86.9854 84.3637 87.7027 88.1819ZM89.5714 98.1634C89.646 98.5647 89.7199 98.9659 89.7945 99.3668C91.257 99.3658 92.7196 99.3621 94.1821 99.3568C94.0581 98.8555 93.9844 98.3104 93.9334 98.1187C93.4284 96.2149 92.9284 94.3098 92.4075 92.4103C92.0821 91.2235 91.7543 90.036 91.4074 88.8541C90.2144 88.851 89.021 88.8476 87.8276 88.8469C88.4109 91.9519 88.993 95.0572 89.5714 98.1634ZM94.62 122.026C94.4733 122.001 94.4155 121.938 94.4136 121.867C93.9105 121.835 93.4548 121.879 93.0474 121.985C92.4563 122.31 91.7673 122.726 91.2564 123.146C90.6895 123.87 90.4335 124.809 90.4944 125.733C90.5758 126.277 90.7355 126.846 90.9664 127.357C91.4913 128.3 92.4485 129.02 93.8464 129.156C94.7443 129.15 95.5063 128.913 96.1011 128.606C98.2589 127.004 97.7849 122.568 94.62 122.026ZM98.2439 134.111C97.9238 134.238 97.596 134.36 97.2749 134.474C97.61 134.374 97.9322 134.251 98.2439 134.111ZM134.851 126.428C133.653 127.848 134.282 130.622 136.777 130.758C136.926 130.766 137.067 130.759 137.201 130.743C137.481 130.69 137.735 130.609 137.962 130.51C139.71 129.546 139.41 126.122 137.121 125.73C137.004 125.71 136.944 125.666 136.923 125.612C136.58 125.596 136.27 125.63 135.994 125.706C135.623 125.911 135.196 126.165 134.851 126.428ZM124.949 99.7758C116.374 99.8385 107.801 99.9395 99.226 99.9945C97.9139 100.152 96.5937 100.237 95.2642 100.224C95.0982 100.332 94.8387 100.362 94.6952 100.325C94.6321 100.308 94.574 100.263 94.5208 100.199C94.3853 100.171 94.343 100.102 94.3592 100.02C92.8783 100.026 91.3978 100.029 89.917 100.031C90.6109 103.761 91.3021 107.493 91.9572 111.231C92.1866 112.538 92.4168 113.846 92.6164 115.158C92.6468 115.358 92.7037 115.597 92.7494 115.841C93.8265 115.707 94.9407 115.711 96.0548 115.844C96.1794 115.859 96.2397 115.903 96.2568 115.958L97.072 116.075C97.072 116.075 97.9301 116.504 98.8823 117.138C101.489 118.536 103.224 121.212 103.614 124.305C103.722 125.156 103.735 126.022 103.66 126.876C112.297 126.876 120.934 126.876 129.572 126.876C129.573 126.87 129.574 126.865 129.575 126.859C130.197 123.47 132.784 121.546 135.868 121.154C135.656 120.882 135.47 120.594 135.307 120.355C134.223 118.765 133.292 117.072 132.397 115.37C129.716 110.271 127.309 105.029 124.949 99.7758ZM141.609 89.1555C139.785 89.1552 137.961 89.1499 136.137 89.1443C136.077 89.2932 136.011 89.4411 135.953 89.5909C135.939 89.6257 135.912 89.6571 135.875 89.686C137.51 90.1994 138.64 91.9006 138.719 93.7016C138.837 96.373 136.842 98.0985 134.225 98.0839C131.351 98.0674 128.574 96.1223 129.302 92.9278C129.335 92.7792 129.376 92.6363 129.422 92.4958C128.909 92.3401 128.403 92.1586 127.902 91.9519C127.571 93.2261 127.24 94.5006 126.919 95.7776C126.703 96.6369 126.125 98.0062 126.023 99.1048C129.931 99.0778 133.84 99.0588 137.75 99.0585C137.766 99.0585 137.779 99.0607 137.794 99.0616C139.156 95.7975 140.419 92.4874 141.609 89.1555ZM145.404 77.7136C144.215 77.7121 143.025 77.708 141.836 77.7006C141.401 78.5981 140.961 79.4928 140.518 80.3835C139.184 83.0661 137.609 85.7159 136.411 88.4802C138.204 88.4858 139.997 88.4911 141.79 88.4914C141.81 88.4914 141.826 88.4939 141.844 88.4951C141.99 88.0827 142.14 87.6713 142.284 87.2582C143.366 84.1492 144.479 80.956 145.404 77.7136ZM147.472 66.7798C147.132 66.7798 146.791 66.7798 146.45 66.7798C145.26 70.2891 143.762 73.6934 142.157 77.0383C143.302 77.0451 144.448 77.0482 145.593 77.0495C146.528 73.6648 147.237 70.2288 147.472 66.7798ZM154.475 44.3196C152.779 45.2208 151.393 46.799 150.121 48.2015C148.41 50.0876 146.798 52.0626 145.235 54.0734C143.841 55.8678 142.479 57.6877 141.151 59.5322C140.706 60.1512 140.263 60.7719 139.827 61.3981C139.722 61.5491 139.447 62.0016 139.373 62.0426C139.376 62.0663 139.366 62.0948 139.338 62.129C139.332 62.1371 139.326 62.1449 139.319 62.1517C139.272 62.2005 139.127 62.2807 138.969 62.3382C138.812 62.5678 138.667 62.8025 138.531 63.0409C140.348 63.934 142.205 64.7337 144.131 65.3816C144.453 64.6777 144.995 64.0478 145.467 63.4477C148.385 59.7407 151.569 56.2218 154.135 52.2497C155.182 50.6287 156.449 48.7146 156.66 46.7393C156.778 45.6419 155.933 43.5445 154.475 44.3196ZM116.51 45.5764C118.279 46.6796 120.11 47.8071 121.66 49.2187C121.914 49.2041 122.155 49.3256 122.056 49.6037C121.063 52.415 118.959 54.6185 117.911 57.399C117.793 57.7132 117.163 57.7682 117.044 57.5056C117.04 57.5028 117.035 57.5012 117.031 57.4984C113.973 55.3423 110.405 53.743 107.835 50.9631C107.684 50.9559 107.576 50.8907 107.614 50.7142V50.7138C107.538 50.5802 107.618 50.4491 107.76 50.3592C107.91 50.091 108.131 49.8275 108.272 49.6044C108.715 48.9017 109.158 48.199 109.595 47.4929C109.637 47.4264 109.679 47.3605 109.72 47.294C110.463 46.0904 111.253 44.8889 111.755 43.5743C111.767 43.5439 111.784 43.5175 111.804 43.4932C111.926 43.3484 112.181 43.3089 112.344 43.3089C112.755 43.3086 113.254 43.6753 113.594 43.8618C114.582 44.4044 115.553 44.9797 116.51 45.5764ZM121.071 49.8166C121.041 49.789 121.01 49.7626 120.98 49.7349C119.446 48.3022 117.586 47.1641 115.808 46.0671C114.989 45.5615 114.166 45.0617 113.325 44.5924C113.119 44.4771 112.755 44.2201 112.439 44.0576C111.996 45.0654 111.328 46.1457 110.731 47.1122C110.241 47.906 109.744 48.6956 109.247 49.485C109.092 49.7309 108.731 50.1958 108.584 50.4814C108.942 50.8751 109.323 51.2443 109.719 51.5946C111.077 52.7942 112.628 53.7722 114.192 54.7254C115.242 55.3659 116.297 55.9974 117.301 56.6792C117.897 55.3314 118.713 54.1041 119.484 52.8526C120.084 51.8793 120.653 50.8894 121.071 49.8166ZM36.7919 18.9613C36.7515 18.9172 36.6107 18.9349 36.5644 18.9393C36.4454 18.9508 36.3267 18.979 36.2142 19.0191C36.1477 19.0428 35.8388 19.15 35.9423 19.2625C36.1036 19.4381 36.1558 19.7116 36.2276 19.9316C36.2922 20.1292 37.1854 19.8645 37.1279 19.6904C37.044 19.434 36.9796 19.1655 36.7919 18.9613Z" fill="#756100"/>
</svg>
