<svg width="10" height="14" viewBox="0 0 10 14" fill="none" xmlns="http://www.w3.org/2000/svg">
<path d="M9.05335 3.66667C8.96575 3.65938 8.87757 3.66949 8.79388 3.69641C8.7102 3.72334 8.63267 3.76654 8.56575 3.82355C8.49883 3.88055 8.44385 3.95023 8.40396 4.02857C8.36408 4.10691 8.34008 4.19236 8.33335 4.28001L8.10002 7.31334C7.79175 7.21791 7.51522 7.04047 7.30002 6.80001C7.23746 6.72907 7.16052 6.67226 7.07431 6.63334C6.9881 6.59443 6.8946 6.5743 6.80002 6.5743C6.70543 6.5743 6.61193 6.59443 6.52573 6.63334C6.43952 6.67226 6.36258 6.72907 6.30002 6.80001C6.13456 6.97982 5.93359 7.12334 5.70983 7.22152C5.48607 7.31969 5.24437 7.37038 5.00002 7.37038C4.75567 7.37038 4.51397 7.31969 4.29021 7.22152C4.06644 7.12334 3.86548 6.97982 3.70002 6.80001C3.63746 6.72907 3.56052 6.67226 3.47431 6.63334C3.3881 6.59443 3.2946 6.5743 3.20002 6.5743C3.10543 6.5743 3.01193 6.59443 2.92573 6.63334C2.83952 6.67226 2.76258 6.72907 2.70002 6.80001C2.48416 7.03971 2.20786 7.217 1.90002 7.31334L1.66668 4.28001C1.65996 4.19236 1.63596 4.10691 1.59607 4.02857C1.55619 3.95023 1.5012 3.88055 1.43429 3.82355C1.36737 3.76654 1.28984 3.72334 1.20615 3.69641C1.12247 3.66949 1.03429 3.65938 0.946685 3.66667C0.859036 3.6734 0.773583 3.6974 0.695245 3.73729C0.616907 3.77717 0.547231 3.83216 0.490226 3.89907C0.433221 3.96599 0.390014 4.04352 0.363091 4.12721C0.336168 4.21089 0.326061 4.29907 0.333351 4.38667L0.906685 11.82C0.945392 12.3234 1.17307 12.7936 1.54404 13.1361C1.915 13.4786 2.40178 13.6682 2.90668 13.6667H7.10669C7.61159 13.6682 8.09837 13.4786 8.46933 13.1361C8.84029 12.7936 9.06798 12.3234 9.10669 11.82L9.66669 4.38667C9.67398 4.29907 9.66387 4.21089 9.63695 4.12721C9.61002 4.04352 9.56682 3.96599 9.50981 3.89907C9.45281 3.83216 9.38313 3.77717 9.30479 3.73729C9.22645 3.6974 9.141 3.6734 9.05335 3.66667ZM7.76002 11.72C7.74658 11.8874 7.67046 12.0436 7.54686 12.1573C7.42326 12.271 7.2613 12.3339 7.09335 12.3333H2.90002C2.73207 12.3339 2.57011 12.271 2.44651 12.1573C2.32291 12.0436 2.24679 11.8874 2.23335 11.72L2.00002 8.66668C2.43225 8.57634 2.84092 8.39697 3.20002 8.14001C3.72581 8.51378 4.35491 8.71461 5.00002 8.71461C5.64512 8.71461 6.27423 8.51378 6.80002 8.14001C7.15911 8.39697 7.56779 8.57634 8.00002 8.66668L7.76002 11.72ZM5.00002 5.66668C5.57411 5.66492 6.12419 5.43608 6.53014 5.03013C6.93609 4.62418 7.16493 4.0741 7.16669 3.50001C7.16669 1.66667 5.44669 0.493341 5.37335 0.446675C5.26311 0.372157 5.13309 0.332336 5.00002 0.332336C4.86695 0.332336 4.73693 0.372157 4.62669 0.446675C4.55335 0.500008 2.83335 1.66667 2.83335 3.50001C2.83511 4.0741 3.06395 4.62418 3.4699 5.03013C3.87584 5.43608 4.42592 5.66492 5.00002 5.66668ZM5.00002 1.86667C5.48245 2.27982 5.78199 2.86693 5.83335 3.50001C5.83335 3.72102 5.74555 3.93298 5.58927 4.08926C5.43299 4.24554 5.22103 4.33334 5.00002 4.33334C4.77901 4.33334 4.56704 4.24554 4.41076 4.08926C4.25448 3.93298 4.16669 3.72102 4.16669 3.50001C4.22155 2.86793 4.52045 2.28207 5.00002 1.86667Z" fill="black"/>
</svg>
