<svg width="14" height="14" viewBox="0 0 14 14" fill="none" xmlns="http://www.w3.org/2000/svg">
<path d="M13.5203 1.41331C13.5977 1.31575 13.6462 1.19846 13.6603 1.07474C13.6744 0.951026 13.6536 0.82582 13.6003 0.713313C13.5462 0.599865 13.4612 0.503998 13.3551 0.436764C13.2489 0.369531 13.1259 0.333669 13.0003 0.333313H1.00028C0.874618 0.333669 0.751619 0.369531 0.645461 0.436764C0.539303 0.503998 0.454308 0.599865 0.400275 0.713313C0.346904 0.82582 0.32611 0.951026 0.340249 1.07474C0.354389 1.19846 0.402896 1.31575 0.480275 1.41331L6.33361 8.73331V12.3333H2.50028C2.32346 12.3333 2.1539 12.4036 2.02887 12.5286C1.90385 12.6536 1.83361 12.8232 1.83361 13C1.83361 13.1768 1.90385 13.3464 2.02887 13.4714C2.1539 13.5964 2.32346 13.6666 2.50028 13.6666H11.5003C11.6771 13.6666 11.8467 13.5964 11.9717 13.4714C12.0967 13.3464 12.1669 13.1768 12.1669 13C12.1669 12.8232 12.0967 12.6536 11.9717 12.5286C11.8467 12.4036 11.6771 12.3333 11.5003 12.3333H7.66694V8.73331L13.5203 1.41331ZM2.38694 1.66665H11.6136L10.0136 3.66665H4.01361L2.38694 1.66665ZM7.00028 7.43331L5.05361 4.99998H8.94694L7.00028 7.43331Z" fill="black"/>
</svg>
