<svg width="115" height="115" viewBox="0 0 115 115" fill="none" xmlns="http://www.w3.org/2000/svg">
<rect opacity="0.5" width="115" height="115" rx="39" fill="#F41717" fill-opacity="0.15"/>
<path d="M37.5 45H41.8333H76.5" stroke="#F41717" stroke-width="3" stroke-linecap="round" stroke-linejoin="round"/>
<path d="M48.334 45V40.6667C48.334 39.5174 48.7905 38.4152 49.6032 37.6025C50.4158 36.7899 51.518 36.3333 52.6673 36.3333H61.334C62.4833 36.3333 63.5855 36.7899 64.3981 37.6025C65.2108 38.4152 65.6673 39.5174 65.6673 40.6667V45M72.1673 45V75.3333C72.1673 76.4826 71.7108 77.5848 70.8981 78.3975C70.0855 79.2101 68.9833 79.6667 67.834 79.6667H46.1673C45.018 79.6667 43.9158 79.2101 43.1032 78.3975C42.2905 77.5848 41.834 76.4826 41.834 75.3333V45H72.1673Z" stroke="#F41717" stroke-width="3" stroke-linecap="round" stroke-linejoin="round"/>
<path d="M52.666 55.8333V68.8333" stroke="#F41717" stroke-width="3" stroke-linecap="round" stroke-linejoin="round"/>
<path d="M61.334 55.8333V68.8333" stroke="#F41717" stroke-width="3" stroke-linecap="round" stroke-linejoin="round"/>
</svg>
