<svg width="14" height="14" viewBox="0 0 14 14" fill="none" xmlns="http://www.w3.org/2000/svg">
<path d="M10.0003 2.33334C9.41336 2.33287 8.83729 2.49187 8.33366 2.79334C7.9685 1.9552 7.32725 1.26743 6.51669 0.844576C5.70612 0.421719 4.77516 0.289286 3.87883 0.469331C2.9825 0.649377 2.1749 1.13103 1.5905 1.8341C1.0061 2.53716 0.68017 3.4192 0.666992 4.33334V7.00001C0.667949 7.94459 1.00316 8.85836 1.61325 9.57949C2.22334 10.3006 3.06895 10.7826 4.00033 10.94V13C4.00033 13.1768 4.07056 13.3464 4.19559 13.4714C4.32061 13.5964 4.49018 13.6667 4.66699 13.6667C4.8438 13.6667 5.01337 13.5964 5.1384 13.4714C5.26342 13.3464 5.33366 13.1768 5.33366 13V10.94C6.01281 10.8221 6.65069 10.533 7.18699 10.1C7.425 10.482 7.73791 10.8119 8.10685 11.0696C8.47579 11.3274 8.89311 11.5079 9.33366 11.6V13C9.33366 13.1768 9.4039 13.3464 9.52892 13.4714C9.65394 13.5964 9.82351 13.6667 10.0003 13.6667C10.1771 13.6667 10.3467 13.5964 10.4717 13.4714C10.5968 13.3464 10.667 13.1768 10.667 13V11.6C11.4199 11.4463 12.0966 11.0372 12.5825 10.4419C13.0685 9.84666 13.3338 9.10177 13.3337 8.33334V5.66667C13.3337 4.78262 12.9825 3.93477 12.3573 3.30965C11.7322 2.68453 10.8844 2.33334 10.0003 2.33334ZM6.66699 5.66667V8.33334C6.67337 8.46064 6.68672 8.5875 6.70699 8.71334C6.35045 9.13798 5.87041 9.44092 5.33366 9.58001V7.66667C5.33366 7.48986 5.26342 7.32029 5.1384 7.19527C5.01337 7.07024 4.8438 7.00001 4.66699 7.00001C4.49018 7.00001 4.32061 7.07024 4.19559 7.19527C4.07056 7.32029 4.00033 7.48986 4.00033 7.66667V9.57334C3.42934 9.42591 2.92333 9.09338 2.56145 8.62777C2.19957 8.16215 2.00224 7.58971 2.00033 7.00001V4.33334C1.99859 3.80505 2.1538 3.28815 2.44628 2.84821C2.73876 2.40827 3.15533 2.06511 3.64313 1.86228C4.13093 1.65944 4.66799 1.60607 5.18617 1.70893C5.70435 1.81178 6.18031 2.06624 6.55366 2.44001C6.91456 2.80576 7.16026 3.26934 7.26033 3.77334C6.87495 4.32959 6.668 4.98997 6.66699 5.66667ZM12.0003 8.33334C11.9992 8.74597 11.8704 9.14814 11.6317 9.48472C11.393 9.82129 11.056 10.0758 10.667 10.2133V7.66667C10.667 7.48986 10.5968 7.32029 10.4717 7.19527C10.3467 7.07024 10.1771 7.00001 10.0003 7.00001C9.82351 7.00001 9.65394 7.07024 9.52892 7.19527C9.4039 7.32029 9.33366 7.48986 9.33366 7.66667V10.2133C8.94463 10.0758 8.60766 9.82129 8.36895 9.48472C8.13024 9.14814 8.00148 8.74597 8.00033 8.33334V5.66667C8.00033 5.13624 8.21104 4.62753 8.58611 4.25246C8.96118 3.87739 9.46989 3.66667 10.0003 3.66667C10.5308 3.66667 11.0395 3.87739 11.4145 4.25246C11.7896 4.62753 12.0003 5.13624 12.0003 5.66667V8.33334Z" fill="black"/>
</svg>
