<svg width="14" height="16" viewBox="0 0 14 16" fill="none" xmlns="http://www.w3.org/2000/svg">
<path d="M12.8251 3.58458C12.8463 3.50125 12.8671 3.4088 12.8853 3.30464C12.9931 2.5617 12.8991 1.80343 12.6132 1.1093C12.5771 1.01881 12.5217 0.93731 12.4508 0.870507C12.3798 0.803704 12.2952 0.753219 12.2027 0.722591C11.9654 0.642511 11.0891 0.484958 9.41332 1.55592C8.02034 1.22812 6.57029 1.22812 5.17732 1.55592C3.50836 0.500645 2.63662 0.643845 2.40159 0.719365C2.30683 0.748752 2.21985 0.798969 2.14702 0.866337C2.07419 0.933704 2.01736 1.01651 1.98069 1.1087C1.68889 1.81615 1.59592 2.58988 1.71181 3.34632C1.72809 3.43161 1.74566 3.51039 1.7639 3.58265C1.21161 4.31828 0.917436 5.21556 0.926983 6.13538C0.925183 6.34061 0.934637 6.54578 0.955303 6.74996C1.17797 9.81832 3.17797 10.7396 4.57151 11.056C4.54254 11.1393 4.51618 11.2285 4.49274 11.3229C4.45096 11.4944 4.29848 14.4285 4.39003 14.5794C4.48158 14.7304 4.56414 15.2098 4.73556 15.252C4.90698 15.2943 5.39225 15.3333 5.52957 15C5.66688 14.6666 5.67108 13.195 5.71376 13.0237C5.75618 12.8016 5.52957 11.5556 6.09951 11.0566C6.19668 10.9715 6.26703 10.8601 6.30201 10.7357C6.33699 10.6114 6.33508 10.4796 6.29653 10.3564C6.25797 10.2331 6.18442 10.1237 6.08483 10.0415C5.98524 9.95924 5.8639 9.90773 5.73558 9.8932C3.43284 9.63018 2.43316 8.69203 2.28278 6.62758C2.26612 6.46406 2.25862 6.29974 2.26032 6.13539C2.24962 5.47983 2.4662 4.84078 2.87327 4.3268C2.91417 4.27321 2.95774 4.22171 3.0038 4.1725C3.08542 4.08117 3.1403 3.96911 3.16241 3.84863C3.18452 3.72816 3.17301 3.60392 3.12914 3.48956C3.08416 3.36924 3.04953 3.24531 3.02562 3.11911C2.97131 2.76026 2.98913 2.39417 3.07802 2.04228C3.65745 2.20593 4.20277 2.47231 4.68802 2.82874C4.76827 2.88219 4.85907 2.91776 4.95427 2.93303C5.04947 2.94831 5.14684 2.94294 5.23978 2.91728C6.58719 2.55162 8.00773 2.55185 9.35502 2.91795C9.44846 2.94358 9.54635 2.94864 9.64194 2.9328C9.73753 2.91695 9.82855 2.88057 9.90872 2.82616C10.3917 2.46825 10.9347 2.19949 11.5122 2.03254C11.6007 2.37597 11.6205 2.73351 11.5705 3.08462C11.5464 3.22298 11.5086 3.35862 11.4579 3.48957C11.414 3.60393 11.4025 3.72817 11.4246 3.84865C11.4467 3.96912 11.5016 4.08118 11.5832 4.17251C11.6346 4.23045 11.6861 4.29295 11.7323 4.35154C12.1365 4.85682 12.3494 5.48853 12.3336 6.13538C12.3348 6.30846 12.3264 6.48146 12.3085 6.65361C12.1617 8.69072 11.1581 9.62952 8.84462 9.89319C8.71626 9.90781 8.59491 9.95941 8.49533 10.0417C8.39575 10.124 8.32223 10.2335 8.28371 10.3568C8.2452 10.4801 8.24334 10.612 8.27836 10.7363C8.31339 10.8607 8.3838 10.9722 8.48102 11.0573C8.64677 11.2206 8.75574 11.4328 8.79189 11.6627C8.83694 11.8412 8.85764 12.0249 8.85342 12.209V13.765C8.84689 14.1966 8.84689 14.5201 8.84689 14.6686C8.84689 14.8454 8.91713 15.015 9.04215 15.14C9.16718 15.265 9.33675 15.3352 9.51356 15.3352C9.69037 15.3352 9.85994 15.265 9.98496 15.14C10.11 15.015 10.1802 14.8454 10.1802 14.6686C10.1802 14.524 10.1802 14.207 10.1867 13.7754V12.209C10.1921 11.9142 10.1574 11.62 10.0835 11.3346C10.0624 11.2409 10.0366 11.1483 10.0061 11.0573C11.0202 10.8888 11.9417 10.3659 12.6065 9.58167C13.2712 8.79745 13.6362 7.80278 13.6363 6.77471C13.6582 6.56233 13.6685 6.34889 13.6669 6.13538C13.6817 5.21456 13.3851 4.31572 12.8251 3.58458Z" fill="black"/>
</svg>
