<svg width="25" height="24" viewBox="0 0 25 24" fill="none" xmlns="http://www.w3.org/2000/svg">
<path d="M19.8 13C20.3523 13 20.8 12.5523 20.8 12C20.8 11.4477 20.3523 11 19.8 11C19.2478 11 18.8 11.4477 18.8 12C18.8 12.5523 19.2478 13 19.8 13Z" fill="black" stroke="black" stroke-width="1.4" stroke-linecap="round" stroke-linejoin="round"/>
<path d="M12.8 13C13.3523 13 13.8 12.5523 13.8 12C13.8 11.4477 13.3523 11 12.8 11C12.2478 11 11.8 11.4477 11.8 12C11.8 12.5523 12.2478 13 12.8 13Z" fill="black" stroke="black" stroke-width="1.4" stroke-linecap="round" stroke-linejoin="round"/>
<path d="M5.80005 13C6.35233 13 6.80005 12.5523 6.80005 12C6.80005 11.4477 6.35233 11 5.80005 11C5.24776 11 4.80005 11.4477 4.80005 12C4.80005 12.5523 5.24776 13 5.80005 13Z" fill="black" stroke="black" stroke-width="1.4" stroke-linecap="round" stroke-linejoin="round"/>
</svg>
