<svg width="30" height="29" viewBox="0 0 30 29" fill="none" xmlns="http://www.w3.org/2000/svg">
<path d="M15.4541 0C7.44674 0 0.954102 6.49263 0.954102 14.5C0.954102 22.5074 7.44674 29 15.4541 29C23.4615 29 29.9541 22.5074 29.9541 14.5C29.9541 6.49263 23.4615 0 15.4541 0ZM22.4225 10.93C22.4322 11.0821 22.4322 11.2407 22.4322 11.3961C22.4322 16.1474 18.8137 21.6205 12.2013 21.6205C10.1622 21.6205 8.27207 21.0282 6.67966 20.0087C6.97095 20.0411 7.2493 20.054 7.54707 20.054C9.23011 20.054 10.7772 19.4844 12.0104 18.5199C10.4309 18.4875 9.10388 17.4518 8.65075 16.0277C9.20421 16.1086 9.70265 16.1086 10.2723 15.9629C9.45902 15.7977 8.72803 15.356 8.20351 14.7129C7.67899 14.0698 7.39329 13.2649 7.39495 12.435V12.3897C7.87073 12.6584 8.43066 12.8234 9.01649 12.8461C8.52402 12.5179 8.12014 12.0732 7.84067 11.5515C7.5612 11.0299 7.41477 10.4473 7.41437 9.85547C7.41437 9.18549 7.58915 8.57377 7.9031 8.04297C8.8058 9.15421 9.93223 10.0631 11.2092 10.7105C12.4861 11.3579 13.885 11.7293 15.3149 11.8007C14.8068 9.35703 16.6322 7.37946 18.8266 7.37946C19.8624 7.37946 20.7945 7.81317 21.4515 8.51228C22.2639 8.36016 23.0407 8.05591 23.7333 7.6481C23.4647 8.47991 22.9015 9.18225 22.1539 9.62567C22.8789 9.54799 23.578 9.34732 24.2253 9.06574C23.7366 9.78426 23.1249 10.4219 22.4225 10.93Z" fill="white"/>
</svg>
